<?xml version="1.0" encoding="UTF-8"?>
<svg version="1.1" xmlns="http://www.w3.org/2000/svg" width="1280" height="1408">
<path d="M0 0 C90.42 0 180.84 0 274 0 C274.33 1.32 274.66 2.64 275 4 C277.31 4 279.62 4 282 4 C282.33 5.32 282.66 6.64 283 8 C285.31 8 287.62 8 290 8 C290.33 9.32 290.66 10.64 291 12 C293.31 12 295.62 12 298 12 C298.33 13.32 298.66 14.64 299 16 C301.31 16 303.62 16 306 16 C306.33 17.32 306.66 18.64 307 20 C309.31 20 311.62 20 314 20 C314.33 21.32 314.66 22.64 315 24 C317.64 24 320.28 24 323 24 C323 25.32 323 26.64 323 28 C325.64 28 328.28 28 331 28 C331 29.32 331 30.64 331 32 C333.64 32 336.28 32 339 32 C339.33 32.99 339.66 33.98 340 35 C342.31 35.33 344.62 35.66 347 36 C347.33 36.99 347.66 37.98 348 39 C350.31 39.33 352.62 39.66 355 40 C355.33 40.99 355.66 41.98 356 43 C358.31 43.33 360.62 43.66 363 44 C363.33 44.99 363.66 45.98 364 47 C366.31 47.33 368.62 47.66 371 48 C371.33 48.99 371.66 49.98 372 51 C374.31 51.33 376.62 51.66 379 52 C379.33 52.99 379.66 53.98 380 55 C382.31 55.33 384.62 55.66 387 56 C387.33 56.99 387.66 57.98 388 59 C390.31 59.33 392.62 59.66 395 60 C395.33 60.99 395.66 61.98 396 63 C398.31 63.33 400.62 63.66 403 64 C403.33 64.99 403.66 65.98 404 67 C406.31 67.33 408.62 67.66 411 68 C411.33 68.99 411.66 69.98 412 71 C414.31 71.33 416.62 71.66 419 72 C419.33 72.99 419.66 73.98 420 75 C422.31 75.33 424.62 75.66 427 76 C427.33 76.99 427.66 77.98 428 79 C430.31 79.33 432.62 79.66 435 80 C435.33 80.99 435.66 81.98 436 83 C438.31 83.33 440.62 83.66 443 84 C443.33 84.99 443.66 85.98 444 87 C446.31 87.33 448.62 87.66 451 88 C451.33 88.99 451.66 89.98 452 91 C454.31 91.33 456.62 91.66 459 92 C459.33 92.99 459.66 93.98 460 95 C461.134375 95.144375 462.26875 95.28875 463.4375 95.4375 C467 96 467 96 468 97 C468.09639184 98.79694038 468.12187425 100.59770893 468.12025452 102.39723206 C468.12162918 103.56817413 468.12300385 104.73911621 468.12442017 105.94554138 C468.12082489 107.24169876 468.11722961 108.53785614 468.11352539 109.87329102 C468.11324352 111.24287921 468.11340125 112.61246756 468.1139679 113.98205566 C468.11425588 117.71122948 468.10835909 121.44037141 468.10139394 125.16953778 C468.09516047 129.06264413 468.09455661 132.95575113 468.09336853 136.84886169 C468.09025519 144.22598146 468.08204178 151.60308649 468.07201904 158.98019975 C468.06085797 167.37667543 468.05534747 175.77315179 468.05032361 184.16963303 C468.03985916 201.4464308 468.02205924 218.72321328 468 236 C472.29 235.67 476.58 235.34 481 235 C481 234.01 481 233.02 481 232 C486.28 231.67 491.56 231.34 497 231 C497.33 230.01 497.66 229.02 498 228 C499.05960938 227.96261719 500.11921875 227.92523438 501.2109375 227.88671875 C502.59899424 227.82106742 503.98701349 227.75461979 505.375 227.6875 C506.07367187 227.66494141 506.77234375 227.64238281 507.4921875 227.61914062 C509.77288941 227.53015704 509.77288941 227.53015704 513 227 C513.66 226.01 514.32 225.02 515 224 C517.609621 223.61588725 520.0058074 223.39706803 522.625 223.3125 C523.33140625 223.27833984 524.0378125 223.24417969 524.765625 223.20898438 C526.50985688 223.12648692 528.25490395 223.06156665 530 223 C530 222.34 530 221.68 530 221 C533.171738 219.414131 536.63513822 219.62133555 540.125 219.4375 C540.87910156 219.39431641 541.63320312 219.35113281 542.41015625 219.30664062 C544.27321888 219.2005168 546.13658524 219.09974999 548 219 C548.33 218.01 548.66 217.02 549 216 C554.28 216 559.56 216 565 216 C565 214.68 565 213.36 565 212 C570.28 211.67 575.56 211.34 581 211 C581.33 210.01 581.66 209.02 582 208 C586.95 207.67 591.9 207.34 597 207 C597 206.34 597 205.68 597 205 C599.9615696 203.5192152 602.83506295 203.64685963 606.125 203.4375 C607.40632813 203.35371094 608.68765625 203.26992187 610.0078125 203.18359375 C610.99523438 203.12300781 611.98265625 203.06242188 613 203 C613.33 202.01 613.66 201.02 614 200 C619.28 199.67 624.56 199.34 630 199 C630.33 198.01 630.66 197.02 631 196 C635.95 195.67 640.9 195.34 646 195 C646 194.34 646 193.68 646 193 C648.76452033 191.61773984 651.0461363 191.90474613 654.125 191.9375 C655.22070312 191.94652344 656.31640625 191.95554688 657.4453125 191.96484375 C658.70988281 191.98224609 658.70988281 191.98224609 660 192 C660.33 192.99 660.66 193.98 661 195 C663.31 195.33 665.62 195.66 668 196 C668.33 196.99 668.66 197.98 669 199 C671.31 199.33 673.62 199.66 676 200 C676.33 200.99 676.66 201.98 677 203 C679.31 203.33 681.62 203.66 684 204 C684.33 204.99 684.66 205.98 685 207 C687.31 207.33 689.62 207.66 692 208 C692.33 208.99 692.66 209.98 693 211 C695.31 211.33 697.62 211.66 700 212 C700.33 212.99 700.66 213.98 701 215 C703.31 215.33 705.62 215.66 708 216 C708.33 217.32 708.66 218.64 709 220 C711.31 220 713.62 220 716 220 C716.33 221.32 716.66 222.64 717 224 C719.31 224 721.62 224 724 224 C724.33 225.32 724.66 226.64 725 228 C727.64 228 730.28 228 733 228 C733 229.32 733 230.64 733 232 C735.64 232 738.28 232 741 232 C741 233.32 741 234.64 741 236 C743.64 236 746.28 236 749 236 C749 237.32 749 238.64 749 240 C751.64 240 754.28 240 757 240 C758.08147041 243.24441122 758.12468526 245.58227621 758.1241985 248.99594516 C758.12644579 250.25979392 758.12869308 251.52364269 758.13100848 252.8257899 C758.12844248 254.2390526 758.12578555 255.65231513 758.12304783 257.06557751 C758.12378698 258.5647346 758.12496505 260.06389153 758.12654433 261.56304798 C758.12962736 265.7115351 758.12642666 269.85999791 758.12226619 274.00848324 C758.11884404 278.5107203 758.12120048 283.01295479 758.12284368 287.51519233 C758.12492185 295.41541526 758.12326612 303.31563068 758.11920547 311.21585274 C758.11318412 322.96329654 758.1128684 334.71073558 758.11374746 346.45818064 C758.11506313 366.21679337 758.11171326 385.97540276 758.10573006 405.73401451 C758.09981869 425.30542708 758.09596526 444.87683827 758.09487724 464.44825172 C758.0948085 465.66387163 758.09473976 466.87949154 758.09466894 468.13194841 C758.09433062 474.30514092 758.09402923 480.47833344 758.09374207 486.65152595 C758.09164009 530.40806577 758.08489838 574.16460378 758.07543945 617.92114258 C758.06625923 660.43741852 758.05917355 702.95369397 758.05493164 745.4699707 C758.05480011 746.77986316 758.05466859 748.08975562 758.05453308 749.43934178 C758.05321459 762.59348465 758.05193877 775.74762753 758.05069422 788.9017704 C758.04815781 815.69971647 758.04533656 842.4976625 758.04234314 869.29560852 C758.04220585 870.52781044 758.04206856 871.76001235 758.04192711 873.02955372 C758.0327221 955.35303657 758.0168764 1037.67651841 758 1120 C755.36 1120 752.72 1120 750 1120 C750 1121.32 750 1122.64 750 1124 C747.36 1124 744.72 1124 742 1124 C742 1125.32 742 1126.64 742 1128 C739.36 1128.33 736.72 1128.66 734 1129 C734 1129.99 734 1130.98 734 1132 C731.36 1132.33 728.72 1132.66 726 1133 C725.67 1133.99 725.34 1134.98 725 1136 C722.69 1136.33 720.38 1136.66 718 1137 C717.67 1137.99 717.34 1138.98 717 1140 C714.69 1140.33 712.38 1140.66 710 1141 C709.67 1141.99 709.34 1142.98 709 1144 C706.69 1144.33 704.38 1144.66 702 1145 C701.67 1145.99 701.34 1146.98 701 1148 C698.36 1148 695.72 1148 693 1148 C693 1149.32 693 1150.64 693 1152 C690.36 1152 687.72 1152 685 1152 C685 1153.32 685 1154.64 685 1156 C682.36 1156 679.72 1156 677 1156 C677 1157.32 677 1158.64 677 1160 C674.36 1160 671.72 1160 669 1160 C669 1161.32 669 1162.64 669 1164 C666.36 1164 663.72 1164 661 1164 C661 1165.32 661 1166.64 661 1168 C655.06 1168 649.12 1168 643 1168 C642.67 1167.01 642.34 1166.02 642 1165 C636.72 1164.67 631.44 1164.34 626 1164 C626 1163.01 626 1162.02 626 1161 C624.41058594 1160.94392578 624.41058594 1160.94392578 622.7890625 1160.88671875 C621.40100576 1160.82106742 620.01298651 1160.75461979 618.625 1160.6875 C617.92632813 1160.66494141 617.22765625 1160.64238281 616.5078125 1160.61914062 C614.4765625 1160.51171875 614.4765625 1160.51171875 611 1160 C610.34 1159.01 609.68 1158.02 609 1157 C606.390379 1156.61588725 603.9941926 1156.39706803 601.375 1156.3125 C600.66859375 1156.27833984 599.9621875 1156.24417969 599.234375 1156.20898438 C597.49014312 1156.12648692 595.74509605 1156.06156665 594 1156 C593.67 1155.01 593.34 1154.02 593 1153 C587.72 1152.67 582.44 1152.34 577 1152 C577 1151.01 577 1150.02 577 1149 C572.05 1148.67 567.1 1148.34 562 1148 C561.67 1146.68 561.34 1145.36 561 1144 C559.86820313 1144.03480469 558.73640625 1144.06960938 557.5703125 1144.10546875 C556.08855647 1144.13360336 554.60678444 1144.16090387 553.125 1144.1875 C552.00544922 1144.22520508 552.00544922 1144.22520508 550.86328125 1144.26367188 C548.6953125 1144.29296875 548.6953125 1144.29296875 545 1144 C544.34 1143.01 543.68 1142.02 543 1141 C540.43449075 1140.64106407 538.07352095 1140.44234447 535.5 1140.375 C528.20454545 1140.10227273 528.20454545 1140.10227273 526 1139 C526 1138.34 526 1137.68 526 1137 C520.72 1136.67 515.44 1136.34 510 1136 C509.67 1135.01 509.34 1134.02 509 1133 C507.51886719 1132.90912109 507.51886719 1132.90912109 506.0078125 1132.81640625 C504.72648438 1132.73261719 503.44515625 1132.64882812 502.125 1132.5625 C500.84882812 1132.48128906 499.57265625 1132.40007812 498.2578125 1132.31640625 C495 1132 495 1132 493 1131 C493 1130.34 493 1129.68 493 1129 C487.72 1128.67 482.44 1128.34 477 1128 C477 1126.68 477 1125.36 477 1124 C474.03 1124 471.06 1124 468 1124 C468.00092179 1124.73606193 468.00184359 1125.47212385 468.00279331 1126.23049068 C468.02484753 1144.11460515 468.04141106 1161.99871692 468.05181217 1179.88284206 C468.05697536 1188.53135605 468.06401848 1197.17986097 468.07543945 1205.82836914 C468.08538561 1213.36364579 468.09185326 1220.89891588 468.09408849 1228.43419892 C468.09539572 1232.42655852 468.0984823 1236.41889936 468.10573006 1240.41125298 C468.1124892 1244.16467098 468.11461718 1247.91806239 468.11310768 1251.6714859 C468.11338406 1253.05302894 468.11538981 1254.43457281 468.11920547 1255.81611061 C468.12414099 1257.69437145 468.12239796 1259.57264638 468.12025452 1261.45091248 C468.12117631 1262.50452186 468.1220981 1263.55813124 468.12304783 1264.64366817 C468 1267 468 1267 467 1268 C464.67182036 1268.36760731 462.3381615 1268.70241581 460 1269 C459.67 1269.99 459.34 1270.98 459 1272 C456.69 1272.33 454.38 1272.66 452 1273 C451.67 1273.99 451.34 1274.98 451 1276 C448.69 1276.33 446.38 1276.66 444 1277 C443.67 1277.99 443.34 1278.98 443 1280 C440.69 1280.33 438.38 1280.66 436 1281 C435.67 1281.99 435.34 1282.98 435 1284 C432.69 1284.33 430.38 1284.66 428 1285 C427.67 1285.99 427.34 1286.98 427 1288 C424.69 1288.33 422.38 1288.66 420 1289 C419.67 1289.99 419.34 1290.98 419 1292 C416.69 1292.33 414.38 1292.66 412 1293 C411.67 1293.99 411.34 1294.98 411 1296 C408.69 1296.33 406.38 1296.66 404 1297 C403.67 1297.99 403.34 1298.98 403 1300 C401.88625 1300.103125 400.7725 1300.20625 399.625 1300.3125 C398.42875 1300.539375 397.2325 1300.76625 396 1301 C395.34 1301.99 394.68 1302.98 394 1304 C390.875 1304.6875 390.875 1304.6875 388 1305 C387.67 1305.99 387.34 1306.98 387 1308 C384.69 1308.33 382.38 1308.66 380 1309 C379.67 1309.99 379.34 1310.98 379 1312 C376.69 1312.33 374.38 1312.66 372 1313 C371.67 1313.99 371.34 1314.98 371 1316 C368.69 1316.33 366.38 1316.66 364 1317 C363.67 1317.99 363.34 1318.98 363 1320 C360.69 1320.33 358.38 1320.66 356 1321 C355.67 1321.99 355.34 1322.98 355 1324 C352.69 1324.33 350.38 1324.66 348 1325 C347.67 1325.99 347.34 1326.98 347 1328 C344.36 1328 341.72 1328 339 1328 C338.67 1329.32 338.34 1330.64 338 1332 C335.69 1332 333.38 1332 331 1332 C330.67 1333.32 330.34 1334.64 330 1336 C327.69 1336 325.38 1336 323 1336 C322.67 1337.32 322.34 1338.64 322 1340 C319.69 1340 317.38 1340 315 1340 C314.67 1341.32 314.34 1342.64 314 1344 C311.69 1344 309.38 1344 307 1344 C306.67 1345.32 306.34 1346.64 306 1348 C303.69 1348.33 301.38 1348.66 299 1349 C298.67 1349.99 298.34 1350.98 298 1352 C295.69 1352.33 293.38 1352.66 291 1353 C290.67 1353.99 290.34 1354.98 290 1356 C287.69 1356.33 285.38 1356.66 283 1357 C282.67 1357.99 282.34 1358.98 282 1360 C279.69 1360.33 277.38 1360.66 275 1361 C274.67 1361.99 274.34 1362.98 274 1364 C183.58 1364 93.16 1364 0 1364 C-0.33 1363.01 -0.66 1362.02 -1 1361 C-3.31 1360.67 -5.62 1360.34 -8 1360 C-8.33 1358.68 -8.66 1357.36 -9 1356 C-11.31 1356 -13.62 1356 -16 1356 C-16.33 1354.68 -16.66 1353.36 -17 1352 C-19.31 1352 -21.62 1352 -24 1352 C-24.33 1350.68 -24.66 1349.36 -25 1348 C-27.31 1348 -29.62 1348 -32 1348 C-32.33 1346.68 -32.66 1345.36 -33 1344 C-35.64 1344 -38.28 1344 -41 1344 C-41 1342.68 -41 1341.36 -41 1340 C-43.64 1340 -46.28 1340 -49 1340 C-49 1338.68 -49 1337.36 -49 1336 C-51.64 1336 -54.28 1336 -57 1336 C-57 1334.68 -57 1333.36 -57 1332 C-59.64 1332 -62.28 1332 -65 1332 C-65 1330.68 -65 1329.36 -65 1328 C-67.64 1328 -70.28 1328 -73 1328 C-73.33 1327.01 -73.66 1326.02 -74 1325 C-76.31 1324.67 -78.62 1324.34 -81 1324 C-81.33 1323.01 -81.66 1322.02 -82 1321 C-84.31 1320.67 -86.62 1320.34 -89 1320 C-89.33 1319.01 -89.66 1318.02 -90 1317 C-92.31 1316.67 -94.62 1316.34 -97 1316 C-97.33 1315.01 -97.66 1314.02 -98 1313 C-100.31 1312.67 -102.62 1312.34 -105 1312 C-105.33 1311.01 -105.66 1310.02 -106 1309 C-108.31 1308.67 -110.62 1308.34 -113 1308 C-113.33 1307.01 -113.66 1306.02 -114 1305 C-116.31 1304.67 -118.62 1304.34 -121 1304 C-121.33 1303.01 -121.66 1302.02 -122 1301 C-124.31 1300.67 -126.62 1300.34 -129 1300 C-129.33 1299.01 -129.66 1298.02 -130 1297 C-132.31 1296.67 -134.62 1296.34 -137 1296 C-137.33 1295.01 -137.66 1294.02 -138 1293 C-140.31 1292.67 -142.62 1292.34 -145 1292 C-145.33 1291.01 -145.66 1290.02 -146 1289 C-148.31 1288.67 -150.62 1288.34 -153 1288 C-153.33 1287.01 -153.66 1286.02 -154 1285 C-156.31 1284.67 -158.62 1284.34 -161 1284 C-161.33 1283.01 -161.66 1282.02 -162 1281 C-164.31 1280.67 -166.62 1280.34 -169 1280 C-169.33 1279.01 -169.66 1278.02 -170 1277 C-171.87387216 1276.19787372 -171.87387216 1276.19787372 -174.0625 1275.8125 C-174.79597656 1275.65394531 -175.52945312 1275.49539063 -176.28515625 1275.33203125 C-177.13400391 1275.16767578 -177.13400391 1275.16767578 -178 1275 C-178 1274.34 -178 1273.68 -178 1273 C-180.64 1272.34 -183.28 1271.68 -186 1271 C-186 1270.34 -186 1269.68 -186 1269 C-188.64 1268.34 -191.28 1267.68 -194 1267 C-194 1219.81 -194 1172.62 -194 1124 C-196.97 1124 -199.94 1124 -203 1124 C-203 1125.32 -203 1126.64 -203 1128 C-208.28 1128.33 -213.56 1128.66 -219 1129 C-219 1129.66 -219 1130.32 -219 1131 C-221.9615696 1132.4807848 -224.83506295 1132.35314037 -228.125 1132.5625 C-229.40632812 1132.64628906 -230.68765625 1132.73007813 -232.0078125 1132.81640625 C-232.99523437 1132.87699219 -233.98265625 1132.93757813 -235 1133 C-235.33 1133.99 -235.66 1134.98 -236 1136 C-241.28 1136.33 -246.56 1136.66 -252 1137 C-252.33 1137.99 -252.66 1138.98 -253 1140 C-254.04800781 1140.03738281 -255.09601563 1140.07476563 -256.17578125 1140.11328125 C-257.55472305 1140.17894515 -258.93362771 1140.24539235 -260.3125 1140.3125 C-261.00279297 1140.33505859 -261.69308594 1140.35761719 -262.40429688 1140.38085938 C-266.34301362 1140.45888904 -266.34301362 1140.45888904 -269.5078125 1142.51171875 C-272.28179801 1145.27844252 -276.89245427 1144.47800504 -280.63867188 1144.52734375 C-282.43171491 1144.5871705 -284.21884604 1144.78535341 -286 1145 C-286.66 1145.99 -287.32 1146.98 -288 1148 C-290.62697064 1148.22137393 -293.00893964 1148.28162025 -295.625 1148.1875 C-296.33140625 1148.17396484 -297.0378125 1148.16042969 -297.765625 1148.14648438 C-299.51074128 1148.1111104 -301.25546608 1148.05730221 -303 1148 C-303 1149.32 -303 1150.64 -303 1152 C-308.28 1152.33 -313.56 1152.66 -319 1153 C-319.33 1153.99 -319.66 1154.98 -320 1156 C-321.58941406 1156.05607422 -321.58941406 1156.05607422 -323.2109375 1156.11328125 C-324.59899424 1156.17893258 -325.98701349 1156.24538021 -327.375 1156.3125 C-328.07367188 1156.33505859 -328.77234375 1156.35761719 -329.4921875 1156.38085938 C-331.77288941 1156.46984296 -331.77288941 1156.46984296 -335 1157 C-335.66 1157.99 -336.32 1158.98 -337 1160 C-339.609621 1160.38411275 -342.0058074 1160.60293197 -344.625 1160.6875 C-345.68460937 1160.73874023 -345.68460937 1160.73874023 -346.765625 1160.79101562 C-348.50985688 1160.87351308 -350.25490395 1160.93843335 -352 1161 C-352.33 1161.99 -352.66 1162.98 -353 1164 C-357.95 1164.33 -362.9 1164.66 -368 1165 C-368.33 1165.99 -368.66 1166.98 -369 1168 C-374.94 1168 -380.88 1168 -387 1168 C-387 1166.68 -387 1165.36 -387 1164 C-389.64 1164 -392.28 1164 -395 1164 C-395 1162.68 -395 1161.36 -395 1160 C-397.64 1160 -400.28 1160 -403 1160 C-403 1158.68 -403 1157.36 -403 1156 C-405.64 1156 -408.28 1156 -411 1156 C-411 1154.68 -411 1153.36 -411 1152 C-413.64 1152 -416.28 1152 -419 1152 C-419 1150.68 -419 1149.36 -419 1148 C-421.64 1148 -424.28 1148 -427 1148 C-427 1146.68 -427 1145.36 -427 1144 C-429.64 1144 -432.28 1144 -435 1144 C-435.495 1142.515 -435.495 1142.515 -436 1141 C-438.31 1140.67 -440.62 1140.34 -443 1140 C-443.495 1138.515 -443.495 1138.515 -444 1137 C-446.31 1136.67 -448.62 1136.34 -451 1136 C-451.495 1134.515 -451.495 1134.515 -452 1133 C-454.31 1132.67 -456.62 1132.34 -459 1132 C-459.33 1131.01 -459.66 1130.02 -460 1129 C-462.64 1128.67 -465.28 1128.34 -468 1128 C-468 1127.01 -468 1126.02 -468 1125 C-470.64 1124.67 -473.28 1124.34 -476 1124 C-476 1122.68 -476 1121.36 -476 1120 C-478.31 1120 -480.62 1120 -483 1120 C-484.35528305 1117.28943389 -484.12516055 1115.18109508 -484.12534916 1112.1445294 C-484.12785268 1110.88656344 -484.1303562 1109.62859748 -484.13293558 1108.33251134 C-484.13065839 1106.92070241 -484.12829019 1105.50889363 -484.12584114 1104.097085 C-484.12688321 1102.60341204 -484.12836367 1101.10973934 -484.13024551 1099.6160672 C-484.13416752 1095.47812547 -484.13179504 1091.34020684 -484.12846755 1087.20226545 C-484.12594521 1082.71315206 -484.12918504 1078.22404238 -484.13171089 1073.7349295 C-484.13533445 1065.85611027 -484.13520575 1057.97729787 -484.13266373 1050.09847832 C-484.12889394 1038.38268322 -484.13080836 1026.66689394 -484.13387203 1014.95109889 C-484.13914862 994.0310229 -484.13867706 973.11094995 -484.13579312 952.19087367 C-484.13328158 933.88318382 -484.13261899 915.57549509 -484.13381577 897.2678051 C-484.13389215 896.05532452 -484.13396854 894.84284394 -484.13404724 893.59362153 C-484.13435855 888.67225898 -484.13467695 883.75089643 -484.135007 878.82953389 C-484.13806886 832.62398488 -484.13528804 786.41843782 -484.1299101 740.21288912 C-484.12516448 699.12752074 -484.12558855 658.04215546 -484.13037109 616.95678711 C-484.13572139 570.83944445 -484.13785145 524.72210351 -484.13475883 478.60476059 C-484.13443809 473.69184395 -484.13412525 468.77892731 -484.13381577 463.86601067 C-484.13373669 462.65624927 -484.13365761 461.44648786 -484.13357614 460.20006703 C-484.13243684 441.90087493 -484.13377233 423.60168407 -484.13629532 405.30249214 C-484.13914872 384.50263024 -484.13845231 363.70277188 -484.13301457 342.90291042 C-484.13006901 331.25026622 -484.12989992 319.59762966 -484.13366075 307.94498565 C-484.13589301 300.17390157 -484.13452601 292.40282366 -484.13015598 284.6317405 C-484.12776356 280.19574303 -484.12699193 275.75976082 -484.13056196 271.3237638 C-484.13377129 267.29513615 -484.13245048 263.26653742 -484.1273813 259.23791191 C-484.12636693 257.78293364 -484.12705893 256.32795302 -484.12958724 254.87297659 C-484.13276029 252.90892637 -484.12925012 250.94486867 -484.12534916 248.98081976 C-484.1252814 247.88987081 -484.12521365 246.79892186 -484.12514383 245.67491386 C-484 243 -484 243 -483 240 C-480.36 240 -477.72 240 -475 240 C-475 238.68 -475 237.36 -475 236 C-472.36 236 -469.72 236 -467 236 C-467 234.68 -467 233.36 -467 232 C-464.36 232 -461.72 232 -459 232 C-458.67 230.68 -458.34 229.36 -458 228 C-455.69 228 -453.38 228 -451 228 C-450.67 226.68 -450.34 225.36 -450 224 C-447.69 224 -445.38 224 -443 224 C-442.67 222.68 -442.34 221.36 -442 220 C-439.69 219.67 -437.38 219.34 -435 219 C-434.67 218.01 -434.34 217.02 -434 216 C-431.69 215.67 -429.38 215.34 -427 215 C-426.67 214.01 -426.34 213.02 -426 212 C-423.69 211.67 -421.38 211.34 -419 211 C-418.67 210.01 -418.34 209.02 -418 208 C-415.69 207.67 -413.38 207.34 -411 207 C-410.67 206.01 -410.34 205.02 -410 204 C-407.69 203.67 -405.38 203.34 -403 203 C-402.67 202.01 -402.34 201.02 -402 200 C-399.69 199.67 -397.38 199.34 -395 199 C-394.67 198.01 -394.34 197.02 -394 196 C-391.69 195.67 -389.38 195.34 -387 195 C-386.67 194.01 -386.34 193.02 -386 192 C-381.71 192 -377.42 192 -373 192 C-372.67 192.99 -372.34 193.98 -372 195 C-367.05 195.33 -362.1 195.66 -357 196 C-356.67 196.99 -356.34 197.98 -356 199 C-350.72 199.33 -345.44 199.66 -340 200 C-339.67 200.99 -339.34 201.98 -339 203 C-334.05 203.33 -329.1 203.66 -324 204 C-323.67 204.99 -323.34 205.98 -323 207 C-317.72 207.33 -312.44 207.66 -307 208 C-307 209.32 -307 210.64 -307 212 C-301.72 212 -296.44 212 -291 212 C-291 213.32 -291 214.64 -291 216 C-289.86820313 215.96519531 -288.73640625 215.93039063 -287.5703125 215.89453125 C-286.08855647 215.86639664 -284.60678444 215.83909613 -283.125 215.8125 C-282.37863281 215.78736328 -281.63226563 215.76222656 -280.86328125 215.73632812 C-278.6953125 215.70703125 -278.6953125 215.70703125 -275 216 C-274.34 216.99 -273.68 217.98 -273 219 C-270.43449075 219.35893593 -268.07352095 219.55765553 -265.5 219.625 C-258.20454545 219.89772727 -258.20454545 219.89772727 -256 221 C-256 221.66 -256 222.32 -256 223 C-250.72 223.33 -245.44 223.66 -240 224 C-239.67 224.99 -239.34 225.98 -239 227 C-234.05 227.33 -229.1 227.66 -224 228 C-223.67 228.99 -223.34 229.98 -223 231 C-217.72 231.33 -212.44 231.66 -207 232 C-207 233.32 -207 234.64 -207 236 C-202.71 236 -198.42 236 -194 236 C-194.00222061 234.26081802 -194.00444122 232.52163605 -194.00672913 230.72975159 C-194.02695594 214.38042448 -194.04202988 198.03110039 -194.05181217 181.68176365 C-194.05697531 173.27538616 -194.06401834 164.86901799 -194.07543945 156.46264648 C-194.08538575 149.13832068 -194.0918533 141.81400163 -194.09408849 134.48966926 C-194.09539569 130.60909213 -194.09848212 126.7285343 -194.10573006 122.84796333 C-194.11248942 119.19960443 -194.11461713 115.55127289 -194.11310768 111.90290833 C-194.11351637 109.91711581 -194.118912 107.9313263 -194.12442017 105.94554138 C-194.1230455 104.7745993 -194.12167084 103.60365723 -194.12025452 102.39723206 C-194.12163721 100.86106405 -194.12163721 100.86106405 -194.12304783 99.29386234 C-194 97 -194 97 -193 96 C-190.67182036 95.63239269 -188.3381615 95.29758419 -186 95 C-185.67 94.01 -185.34 93.02 -185 92 C-181.535 91.505 -181.535 91.505 -178 91 C-177.67 90.01 -177.34 89.02 -177 88 C-173.535 87.505 -173.535 87.505 -170 87 C-169.67 86.01 -169.34 85.02 -169 84 C-165.535 83.505 -165.535 83.505 -162 83 C-161.67 82.01 -161.34 81.02 -161 80 C-157.535 79.505 -157.535 79.505 -154 79 C-153.67 78.01 -153.34 77.02 -153 76 C-149.535 75.505 -149.535 75.505 -146 75 C-145.67 74.01 -145.34 73.02 -145 72 C-141.535 71.505 -141.535 71.505 -138 71 C-137.67 70.01 -137.34 69.02 -137 68 C-133.535 67.505 -133.535 67.505 -130 67 C-129.67 66.01 -129.34 65.02 -129 64 C-125.535 63.505 -125.535 63.505 -122 63 C-121.67 62.01 -121.34 61.02 -121 60 C-117.535 59.505 -117.535 59.505 -114 59 C-113.67 58.01 -113.34 57.02 -113 56 C-109.535 55.505 -109.535 55.505 -106 55 C-105.67 54.01 -105.34 53.02 -105 52 C-101.535 51.505 -101.535 51.505 -98 51 C-97.67 50.01 -97.34 49.02 -97 48 C-93.535 47.505 -93.535 47.505 -90 47 C-89.67 46.01 -89.34 45.02 -89 44 C-87.88625 43.896875 -86.7725 43.79375 -85.625 43.6875 C-84.42875 43.460625 -83.2325 43.23375 -82 43 C-81.34 42.01 -80.68 41.02 -80 40 C-78 39.66666667 -76 39.33333333 -74 39 C-73.34 38.01 -72.68 37.02 -72 36 C-70 35.66666667 -68 35.33333333 -66 35 C-65.34 34.01 -64.68 33.02 -64 32 C-60.375 31.8125 -60.375 31.8125 -57 32 C-56.67 30.68 -56.34 29.36 -56 28 C-53.69 28 -51.38 28 -49 28 C-48.67 26.68 -48.34 25.36 -48 24 C-45.69 24 -43.38 24 -41 24 C-40.67 22.68 -40.34 21.36 -40 20 C-37.69 20 -35.38 20 -33 20 C-32.67 18.68 -32.34 17.36 -32 16 C-29.69 16 -27.38 16 -25 16 C-24.67 14.68 -24.34 13.36 -24 12 C-21.69 12 -19.38 12 -17 12 C-16.67 10.68 -16.34 9.36 -16 8 C-13.69 8 -11.38 8 -9 8 C-8.67 6.68 -8.34 5.36 -8 4 C-5.69 4 -3.38 4 -1 4 C-0.67 2.68 -0.34 1.36 0 0 Z " fill="#2769AB" transform="translate(503,22)"/>
<path d="M0 0 C1.32 0 2.64 0 4 0 C5.34204834 4.02614501 5.13933805 7.90120076 5.13061053 12.09936732 C5.13258304 13.04831717 5.13455555 13.99726701 5.13658784 14.97497291 C5.14203498 18.19145653 5.1402998 21.4078976 5.1386652 24.62438488 C5.1411105 26.94896932 5.14399373 29.27355334 5.14727798 31.59813675 C5.15426687 37.35997981 5.15657076 43.1218119 5.15698211 48.88365887 C5.15774405 55.82923961 5.16432431 62.77481175 5.17110313 69.72038879 C5.18360549 82.70210863 5.19136472 95.6838275 5.19658089 108.66555214 C5.20188877 121.82759954 5.20936388 134.98964303 5.21950912 148.15168762 C5.22014776 148.98190318 5.22078639 149.81211874 5.22144438 150.66749235 C5.22471062 154.90049569 5.22801236 159.13349901 5.23132664 163.36650232 C5.25526541 194.03394651 5.27436914 224.70139219 5.29092598 255.36884117 C5.30734094 285.74734358 5.32581461 316.1258436 5.34705925 346.50434303 C5.34771764 347.44714998 5.34837604 348.38995692 5.34905439 349.36133377 C5.35506875 357.97219331 5.36110855 366.58305284 5.36717889 375.19391234 C5.38226998 396.6012815 5.39704188 418.00865087 5.41159725 439.41602039 C5.41259196 440.87842313 5.41259196 440.87842313 5.41360676 442.37036936 C5.44585097 489.81632868 5.47441795 537.26229012 5.50268555 584.70825195 C5.5124993 601.17679852 5.5223293 617.64534508 5.53222656 634.1138916 C5.53314726 635.64592509 5.53314726 635.64592509 5.53408656 637.20890874 C5.56263305 684.67305754 5.5937887 732.13720452 5.62561907 779.60135121 C5.62768502 782.68207228 5.62974984 785.76279335 5.63181442 788.84351441 C5.64549815 809.25930288 5.65922689 829.67509131 5.67298577 850.09087972 C5.70036303 890.71458913 5.72747582 931.33829871 5.75440695 971.96200841 C5.75568953 973.89669469 5.7569723 975.83138097 5.75825526 977.76606725 C5.81602284 1064.8813968 5.87071335 1151.99672819 5.92407227 1239.11206055 C5.92457201 1239.92791993 5.92507175 1240.74377931 5.92558663 1241.5843617 C5.95057879 1282.38957435 5.97539546 1323.19478711 6 1364 C4.02 1364 2.04 1364 0 1364 C-0.33 1363.01 -0.66 1362.02 -1 1361 C-3.31 1360.67 -5.62 1360.34 -8 1360 C-8.33 1358.68 -8.66 1357.36 -9 1356 C-11.31 1356 -13.62 1356 -16 1356 C-16.33 1354.68 -16.66 1353.36 -17 1352 C-19.31 1352 -21.62 1352 -24 1352 C-24.33 1350.68 -24.66 1349.36 -25 1348 C-27.31 1348 -29.62 1348 -32 1348 C-32.33 1346.68 -32.66 1345.36 -33 1344 C-35.64 1344 -38.28 1344 -41 1344 C-41 1342.68 -41 1341.36 -41 1340 C-43.64 1340 -46.28 1340 -49 1340 C-49 1338.68 -49 1337.36 -49 1336 C-51.64 1336 -54.28 1336 -57 1336 C-57 1334.68 -57 1333.36 -57 1332 C-59.64 1332 -62.28 1332 -65 1332 C-65 1330.68 -65 1329.36 -65 1328 C-67.64 1328 -70.28 1328 -73 1328 C-73.33 1327.01 -73.66 1326.02 -74 1325 C-76.31 1324.67 -78.62 1324.34 -81 1324 C-81.33 1323.01 -81.66 1322.02 -82 1321 C-84.31 1320.67 -86.62 1320.34 -89 1320 C-89.33 1319.01 -89.66 1318.02 -90 1317 C-92.31 1316.67 -94.62 1316.34 -97 1316 C-97.33 1315.01 -97.66 1314.02 -98 1313 C-100.31 1312.67 -102.62 1312.34 -105 1312 C-105.33 1311.01 -105.66 1310.02 -106 1309 C-108.31 1308.67 -110.62 1308.34 -113 1308 C-113.33 1307.01 -113.66 1306.02 -114 1305 C-116.31 1304.67 -118.62 1304.34 -121 1304 C-121.33 1303.01 -121.66 1302.02 -122 1301 C-124.31 1300.67 -126.62 1300.34 -129 1300 C-129.33 1299.01 -129.66 1298.02 -130 1297 C-132.31 1296.67 -134.62 1296.34 -137 1296 C-137.33 1295.01 -137.66 1294.02 -138 1293 C-140.31 1292.67 -142.62 1292.34 -145 1292 C-145.33 1291.01 -145.66 1290.02 -146 1289 C-148.31 1288.67 -150.62 1288.34 -153 1288 C-153.33 1287.01 -153.66 1286.02 -154 1285 C-156.31 1284.67 -158.62 1284.34 -161 1284 C-161.33 1283.01 -161.66 1282.02 -162 1281 C-164.31 1280.67 -166.62 1280.34 -169 1280 C-169.33 1279.01 -169.66 1278.02 -170 1277 C-171.87387216 1276.19787372 -171.87387216 1276.19787372 -174.0625 1275.8125 C-174.79597656 1275.65394531 -175.52945312 1275.49539063 -176.28515625 1275.33203125 C-177.13400391 1275.16767578 -177.13400391 1275.16767578 -178 1275 C-178 1274.34 -178 1273.68 -178 1273 C-180.64 1272.34 -183.28 1271.68 -186 1271 C-186 1270.34 -186 1269.68 -186 1269 C-188.64 1268.34 -191.28 1267.68 -194 1267 C-194 1219.81 -194 1172.62 -194 1124 C-196.97 1124 -199.94 1124 -203 1124 C-203 1125.32 -203 1126.64 -203 1128 C-208.28 1128.33 -213.56 1128.66 -219 1129 C-219 1129.66 -219 1130.32 -219 1131 C-221.9615696 1132.4807848 -224.83506295 1132.35314037 -228.125 1132.5625 C-229.40632812 1132.64628906 -230.68765625 1132.73007813 -232.0078125 1132.81640625 C-232.99523437 1132.87699219 -233.98265625 1132.93757813 -235 1133 C-235.33 1133.99 -235.66 1134.98 -236 1136 C-241.28 1136.33 -246.56 1136.66 -252 1137 C-252.33 1137.99 -252.66 1138.98 -253 1140 C-254.04800781 1140.03738281 -255.09601563 1140.07476563 -256.17578125 1140.11328125 C-257.55472305 1140.17894515 -258.93362771 1140.24539235 -260.3125 1140.3125 C-261.00279297 1140.33505859 -261.69308594 1140.35761719 -262.40429688 1140.38085938 C-266.34301362 1140.45888904 -266.34301362 1140.45888904 -269.5078125 1142.51171875 C-272.28179801 1145.27844252 -276.89245427 1144.47800504 -280.63867188 1144.52734375 C-282.43171491 1144.5871705 -284.21884604 1144.78535341 -286 1145 C-286.66 1145.99 -287.32 1146.98 -288 1148 C-290.62697064 1148.22137393 -293.00893964 1148.28162025 -295.625 1148.1875 C-296.33140625 1148.17396484 -297.0378125 1148.16042969 -297.765625 1148.14648438 C-299.51074128 1148.1111104 -301.25546608 1148.05730221 -303 1148 C-303 1149.32 -303 1150.64 -303 1152 C-308.28 1152.33 -313.56 1152.66 -319 1153 C-319.33 1153.99 -319.66 1154.98 -320 1156 C-321.58941406 1156.05607422 -321.58941406 1156.05607422 -323.2109375 1156.11328125 C-324.59899424 1156.17893258 -325.98701349 1156.24538021 -327.375 1156.3125 C-328.07367188 1156.33505859 -328.77234375 1156.35761719 -329.4921875 1156.38085938 C-331.77288941 1156.46984296 -331.77288941 1156.46984296 -335 1157 C-335.66 1157.99 -336.32 1158.98 -337 1160 C-339.609621 1160.38411275 -342.0058074 1160.60293197 -344.625 1160.6875 C-345.68460937 1160.73874023 -345.68460937 1160.73874023 -346.765625 1160.79101562 C-348.50985688 1160.87351308 -350.25490395 1160.93843335 -352 1161 C-352.33 1161.99 -352.66 1162.98 -353 1164 C-357.95 1164.33 -362.9 1164.66 -368 1165 C-368.33 1165.99 -368.66 1166.98 -369 1168 C-374.94 1168 -380.88 1168 -387 1168 C-387 1166.68 -387 1165.36 -387 1164 C-389.64 1164 -392.28 1164 -395 1164 C-395 1162.68 -395 1161.36 -395 1160 C-397.64 1160 -400.28 1160 -403 1160 C-403 1158.68 -403 1157.36 -403 1156 C-405.64 1156 -408.28 1156 -411 1156 C-411 1154.68 -411 1153.36 -411 1152 C-413.64 1152 -416.28 1152 -419 1152 C-419 1150.68 -419 1149.36 -419 1148 C-421.64 1148 -424.28 1148 -427 1148 C-427 1146.68 -427 1145.36 -427 1144 C-429.64 1144 -432.28 1144 -435 1144 C-435.495 1142.515 -435.495 1142.515 -436 1141 C-438.31 1140.67 -440.62 1140.34 -443 1140 C-443.495 1138.515 -443.495 1138.515 -444 1137 C-446.31 1136.67 -448.62 1136.34 -451 1136 C-451.495 1134.515 -451.495 1134.515 -452 1133 C-454.31 1132.67 -456.62 1132.34 -459 1132 C-459.33 1131.01 -459.66 1130.02 -460 1129 C-462.64 1128.67 -465.28 1128.34 -468 1128 C-468 1127.01 -468 1126.02 -468 1125 C-470.64 1124.67 -473.28 1124.34 -476 1124 C-476 1122.68 -476 1121.36 -476 1120 C-478.31 1120 -480.62 1120 -483 1120 C-484.35528305 1117.28943389 -484.12516055 1115.18109508 -484.12534916 1112.1445294 C-484.12785268 1110.88656344 -484.1303562 1109.62859748 -484.13293558 1108.33251134 C-484.13065839 1106.92070241 -484.12829019 1105.50889363 -484.12584114 1104.097085 C-484.12688321 1102.60341204 -484.12836367 1101.10973934 -484.13024551 1099.6160672 C-484.13416752 1095.47812547 -484.13179504 1091.34020684 -484.12846755 1087.20226545 C-484.12594521 1082.71315206 -484.12918504 1078.22404238 -484.13171089 1073.7349295 C-484.13533445 1065.85611027 -484.13520575 1057.97729787 -484.13266373 1050.09847832 C-484.12889394 1038.38268322 -484.13080836 1026.66689394 -484.13387203 1014.95109889 C-484.13914862 994.0310229 -484.13867706 973.11094995 -484.13579312 952.19087367 C-484.13328158 933.88318382 -484.13261899 915.57549509 -484.13381577 897.2678051 C-484.13389215 896.05532452 -484.13396854 894.84284394 -484.13404724 893.59362153 C-484.13435855 888.67225898 -484.13467695 883.75089643 -484.135007 878.82953389 C-484.13806886 832.62398488 -484.13528804 786.41843782 -484.1299101 740.21288912 C-484.12516448 699.12752074 -484.12558855 658.04215546 -484.13037109 616.95678711 C-484.13572139 570.83944445 -484.13785145 524.72210351 -484.13475883 478.60476059 C-484.13443809 473.69184395 -484.13412525 468.77892731 -484.13381577 463.86601067 C-484.13373669 462.65624927 -484.13365761 461.44648786 -484.13357614 460.20006703 C-484.13243684 441.90087493 -484.13377233 423.60168407 -484.13629532 405.30249214 C-484.13914872 384.50263024 -484.13845231 363.70277188 -484.13301457 342.90291042 C-484.13006901 331.25026622 -484.12989992 319.59762966 -484.13366075 307.94498565 C-484.13589301 300.17390157 -484.13452601 292.40282366 -484.13015598 284.6317405 C-484.12776356 280.19574303 -484.12699193 275.75976082 -484.13056196 271.3237638 C-484.13377129 267.29513615 -484.13245048 263.26653742 -484.1273813 259.23791191 C-484.12636693 257.78293364 -484.12705893 256.32795302 -484.12958724 254.87297659 C-484.13276029 252.90892637 -484.12925012 250.94486867 -484.12534916 248.98081976 C-484.1252814 247.88987081 -484.12521365 246.79892186 -484.12514383 245.67491386 C-484 243 -484 243 -483 240 C-480.36 240 -477.72 240 -475 240 C-475 238.68 -475 237.36 -475 236 C-472.36 236 -469.72 236 -467 236 C-467 234.68 -467 233.36 -467 232 C-464.36 232 -461.72 232 -459 232 C-458.67 230.68 -458.34 229.36 -458 228 C-455.69 228 -453.38 228 -451 228 C-450.67 226.68 -450.34 225.36 -450 224 C-447.69 224 -445.38 224 -443 224 C-442.67 222.68 -442.34 221.36 -442 220 C-439.69 219.67 -437.38 219.34 -435 219 C-434.67 218.01 -434.34 217.02 -434 216 C-431.69 215.67 -429.38 215.34 -427 215 C-426.67 214.01 -426.34 213.02 -426 212 C-423.69 211.67 -421.38 211.34 -419 211 C-418.67 210.01 -418.34 209.02 -418 208 C-415.69 207.67 -413.38 207.34 -411 207 C-410.67 206.01 -410.34 205.02 -410 204 C-407.69 203.67 -405.38 203.34 -403 203 C-402.67 202.01 -402.34 201.02 -402 200 C-399.69 199.67 -397.38 199.34 -395 199 C-394.67 198.01 -394.34 197.02 -394 196 C-391.69 195.67 -389.38 195.34 -387 195 C-386.67 194.01 -386.34 193.02 -386 192 C-381.71 192 -377.42 192 -373 192 C-372.67 192.99 -372.34 193.98 -372 195 C-367.05 195.33 -362.1 195.66 -357 196 C-356.67 196.99 -356.34 197.98 -356 199 C-350.72 199.33 -345.44 199.66 -340 200 C-339.67 200.99 -339.34 201.98 -339 203 C-334.05 203.33 -329.1 203.66 -324 204 C-323.67 204.99 -323.34 205.98 -323 207 C-317.72 207.33 -312.44 207.66 -307 208 C-307 209.32 -307 210.64 -307 212 C-301.72 212 -296.44 212 -291 212 C-291 213.32 -291 214.64 -291 216 C-289.86820313 215.96519531 -288.73640625 215.93039063 -287.5703125 215.89453125 C-286.08855647 215.86639664 -284.60678444 215.83909613 -283.125 215.8125 C-282.37863281 215.78736328 -281.63226563 215.76222656 -280.86328125 215.73632812 C-278.6953125 215.70703125 -278.6953125 215.70703125 -275 216 C-274.34 216.99 -273.68 217.98 -273 219 C-270.43449075 219.35893593 -268.07352095 219.55765553 -265.5 219.625 C-258.20454545 219.89772727 -258.20454545 219.89772727 -256 221 C-256 221.66 -256 222.32 -256 223 C-250.72 223.33 -245.44 223.66 -240 224 C-239.67 224.99 -239.34 225.98 -239 227 C-234.05 227.33 -229.1 227.66 -224 228 C-223.67 228.99 -223.34 229.98 -223 231 C-217.72 231.33 -212.44 231.66 -207 232 C-207 233.32 -207 234.64 -207 236 C-202.71 236 -198.42 236 -194 236 C-194.00222061 234.26081802 -194.00444122 232.52163605 -194.00672913 230.72975159 C-194.02695594 214.38042448 -194.04202988 198.03110039 -194.05181217 181.68176365 C-194.05697531 173.27538616 -194.06401834 164.86901799 -194.07543945 156.46264648 C-194.08538575 149.13832068 -194.0918533 141.81400163 -194.09408849 134.48966926 C-194.09539569 130.60909213 -194.09848212 126.7285343 -194.10573006 122.84796333 C-194.11248942 119.19960443 -194.11461713 115.55127289 -194.11310768 111.90290833 C-194.11351637 109.91711581 -194.118912 107.9313263 -194.12442017 105.94554138 C-194.1230455 104.7745993 -194.12167084 103.60365723 -194.12025452 102.39723206 C-194.12163721 100.86106405 -194.12163721 100.86106405 -194.12304783 99.29386234 C-194 97 -194 97 -193 96 C-190.67182036 95.63239269 -188.3381615 95.29758419 -186 95 C-185.67 94.01 -185.34 93.02 -185 92 C-181.535 91.505 -181.535 91.505 -178 91 C-177.67 90.01 -177.34 89.02 -177 88 C-173.535 87.505 -173.535 87.505 -170 87 C-169.67 86.01 -169.34 85.02 -169 84 C-165.535 83.505 -165.535 83.505 -162 83 C-161.67 82.01 -161.34 81.02 -161 80 C-157.535 79.505 -157.535 79.505 -154 79 C-153.67 78.01 -153.34 77.02 -153 76 C-149.535 75.505 -149.535 75.505 -146 75 C-145.67 74.01 -145.34 73.02 -145 72 C-141.535 71.505 -141.535 71.505 -138 71 C-137.67 70.01 -137.34 69.02 -137 68 C-133.535 67.505 -133.535 67.505 -130 67 C-129.67 66.01 -129.34 65.02 -129 64 C-125.535 63.505 -125.535 63.505 -122 63 C-121.67 62.01 -121.34 61.02 -121 60 C-117.535 59.505 -117.535 59.505 -114 59 C-113.67 58.01 -113.34 57.02 -113 56 C-109.535 55.505 -109.535 55.505 -106 55 C-105.67 54.01 -105.34 53.02 -105 52 C-101.535 51.505 -101.535 51.505 -98 51 C-97.67 50.01 -97.34 49.02 -97 48 C-93.535 47.505 -93.535 47.505 -90 47 C-89.67 46.01 -89.34 45.02 -89 44 C-87.88625 43.896875 -86.7725 43.79375 -85.625 43.6875 C-84.42875 43.460625 -83.2325 43.23375 -82 43 C-81.34 42.01 -80.68 41.02 -80 40 C-78 39.66666667 -76 39.33333333 -74 39 C-73.34 38.01 -72.68 37.02 -72 36 C-70 35.66666667 -68 35.33333333 -66 35 C-65.34 34.01 -64.68 33.02 -64 32 C-60.375 31.8125 -60.375 31.8125 -57 32 C-56.67 30.68 -56.34 29.36 -56 28 C-53.69 28 -51.38 28 -49 28 C-48.67 26.68 -48.34 25.36 -48 24 C-45.69 24 -43.38 24 -41 24 C-40.67 22.68 -40.34 21.36 -40 20 C-37.69 20 -35.38 20 -33 20 C-32.67 18.68 -32.34 17.36 -32 16 C-29.69 16 -27.38 16 -25 16 C-24.67 14.68 -24.34 13.36 -24 12 C-21.69 12 -19.38 12 -17 12 C-16.67 10.68 -16.34 9.36 -16 8 C-13.69 8 -11.38 8 -9 8 C-8.67 6.68 -8.34 5.36 -8 4 C-5.69 4 -3.38 4 -1 4 C-0.67 2.68 -0.34 1.36 0 0 Z " fill="#488AC5" transform="translate(503,22)"/>
<path d="M0 0 C1.09570312 0.00902344 2.19140625 0.01804688 3.3203125 0.02734375 C4.58488281 0.04474609 4.58488281 0.04474609 5.875 0.0625 C6.205 1.0525 6.535 2.0425 6.875 3.0625 C9.185 3.3925 11.495 3.7225 13.875 4.0625 C14.205 5.0525 14.535 6.0425 14.875 7.0625 C17.185 7.3925 19.495 7.7225 21.875 8.0625 C22.205 9.0525 22.535 10.0425 22.875 11.0625 C25.185 11.3925 27.495 11.7225 29.875 12.0625 C30.205 13.0525 30.535 14.0425 30.875 15.0625 C33.185 15.3925 35.495 15.7225 37.875 16.0625 C38.205 17.0525 38.535 18.0425 38.875 19.0625 C41.185 19.3925 43.495 19.7225 45.875 20.0625 C46.205 21.0525 46.535 22.0425 46.875 23.0625 C49.185 23.3925 51.495 23.7225 53.875 24.0625 C54.205 25.3825 54.535 26.7025 54.875 28.0625 C57.185 28.0625 59.495 28.0625 61.875 28.0625 C62.205 29.3825 62.535 30.7025 62.875 32.0625 C65.185 32.0625 67.495 32.0625 69.875 32.0625 C70.205 33.3825 70.535 34.7025 70.875 36.0625 C73.515 36.0625 76.155 36.0625 78.875 36.0625 C78.875 37.3825 78.875 38.7025 78.875 40.0625 C81.515 40.0625 84.155 40.0625 86.875 40.0625 C86.875 41.3825 86.875 42.7025 86.875 44.0625 C89.515 44.0625 92.155 44.0625 94.875 44.0625 C94.875 45.3825 94.875 46.7025 94.875 48.0625 C97.515 48.0625 100.155 48.0625 102.875 48.0625 C103.95647041 51.30691122 103.99968526 53.64477621 103.9991985 57.05844516 C104.00256944 58.9542183 104.00256944 58.9542183 104.00600848 60.8882899 C104.00344248 62.3015526 104.00078555 63.71481513 103.99804783 65.12807751 C103.99878698 66.6272346 103.99996505 68.12639153 104.00154433 69.62554798 C104.00462736 73.7740351 104.00142666 77.92249791 103.99726619 82.07098324 C103.99384404 86.5732203 103.99620048 91.07545479 103.99784368 95.57769233 C103.99992185 103.47791526 103.99826612 111.37813068 103.99420547 119.27835274 C103.98818412 131.02579654 103.9878684 142.77323558 103.98874746 154.52068064 C103.99006313 174.27929337 103.98671326 194.03790276 103.98073006 213.79651451 C103.97481869 233.36792708 103.97096526 252.93933827 103.96987724 272.51075172 C103.9698085 273.72637163 103.96973976 274.94199154 103.96966894 276.19444841 C103.96933062 282.36764092 103.96902923 288.54083344 103.96874207 294.71402595 C103.96664009 338.47056577 103.95989838 382.22710378 103.95043945 425.98364258 C103.94125923 468.49991852 103.93417355 511.01619397 103.92993164 553.5324707 C103.92980011 554.84236316 103.92966859 556.15225562 103.92953308 557.50184178 C103.92821459 570.65598465 103.92693877 583.81012753 103.92569422 596.9642704 C103.92315781 623.76221647 103.92033656 650.5601625 103.91734314 677.35810852 C103.91720585 678.59031044 103.91706856 679.82251235 103.91692711 681.09205372 C103.9077221 763.41553657 103.8918764 845.73901841 103.875 928.0625 C101.235 928.0625 98.595 928.0625 95.875 928.0625 C95.875 929.3825 95.875 930.7025 95.875 932.0625 C93.235 932.0625 90.595 932.0625 87.875 932.0625 C87.875 933.3825 87.875 934.7025 87.875 936.0625 C85.235 936.3925 82.595 936.7225 79.875 937.0625 C79.875 938.0525 79.875 939.0425 79.875 940.0625 C77.235 940.3925 74.595 940.7225 71.875 941.0625 C71.545 942.0525 71.215 943.0425 70.875 944.0625 C68.565 944.3925 66.255 944.7225 63.875 945.0625 C63.545 946.0525 63.215 947.0425 62.875 948.0625 C60.565 948.3925 58.255 948.7225 55.875 949.0625 C55.545 950.0525 55.215 951.0425 54.875 952.0625 C52.565 952.3925 50.255 952.7225 47.875 953.0625 C47.545 954.0525 47.215 955.0425 46.875 956.0625 C44.235 956.0625 41.595 956.0625 38.875 956.0625 C38.875 957.3825 38.875 958.7025 38.875 960.0625 C36.235 960.0625 33.595 960.0625 30.875 960.0625 C30.875 961.3825 30.875 962.7025 30.875 964.0625 C28.235 964.0625 25.595 964.0625 22.875 964.0625 C22.875 965.3825 22.875 966.7025 22.875 968.0625 C20.235 968.0625 17.595 968.0625 14.875 968.0625 C14.875 969.3825 14.875 970.7025 14.875 972.0625 C12.235 972.0625 9.595 972.0625 6.875 972.0625 C6.875 973.3825 6.875 974.7025 6.875 976.0625 C0.935 976.0625 -5.005 976.0625 -11.125 976.0625 C-11.455 975.0725 -11.785 974.0825 -12.125 973.0625 C-17.405 972.7325 -22.685 972.4025 -28.125 972.0625 C-28.125 971.0725 -28.125 970.0825 -28.125 969.0625 C-29.71441406 969.00642578 -29.71441406 969.00642578 -31.3359375 968.94921875 C-32.72399424 968.88356742 -34.11201349 968.81711979 -35.5 968.75 C-36.19867187 968.72744141 -36.89734375 968.70488281 -37.6171875 968.68164062 C-39.6484375 968.57421875 -39.6484375 968.57421875 -43.125 968.0625 C-44.115 966.5775 -44.115 966.5775 -45.125 965.0625 C-47.734621 964.67838725 -50.1308074 964.45956803 -52.75 964.375 C-53.45640625 964.34083984 -54.1628125 964.30667969 -54.890625 964.27148438 C-56.63485688 964.18898692 -58.37990395 964.12406665 -60.125 964.0625 C-60.62 962.5775 -60.62 962.5775 -61.125 961.0625 C-66.405 960.7325 -71.685 960.4025 -77.125 960.0625 C-77.125 959.0725 -77.125 958.0825 -77.125 957.0625 C-82.075 956.7325 -87.025 956.4025 -92.125 956.0625 C-92.455 954.7425 -92.785 953.4225 -93.125 952.0625 C-94.25679687 952.09730469 -95.38859375 952.13210938 -96.5546875 952.16796875 C-98.03644353 952.19610336 -99.51821556 952.22340387 -101 952.25 C-102.11955078 952.28770508 -102.11955078 952.28770508 -103.26171875 952.32617188 C-105.4296875 952.35546875 -105.4296875 952.35546875 -109.125 952.0625 C-110.115 950.5775 -110.115 950.5775 -111.125 949.0625 C-113.69050925 948.70356407 -116.05147905 948.50484447 -118.625 948.4375 C-125.92045455 948.16477273 -125.92045455 948.16477273 -128.125 947.0625 C-128.125 946.4025 -128.125 945.7425 -128.125 945.0625 C-133.405 944.7325 -138.685 944.4025 -144.125 944.0625 C-144.62 942.5775 -144.62 942.5775 -145.125 941.0625 C-146.11242187 941.00191406 -147.09984375 940.94132812 -148.1171875 940.87890625 C-149.39851562 940.79511719 -150.67984375 940.71132812 -152 940.625 C-153.27617188 940.54378906 -154.55234375 940.46257813 -155.8671875 940.37890625 C-159.125 940.0625 -159.125 940.0625 -161.125 939.0625 C-161.125 938.4025 -161.125 937.7425 -161.125 937.0625 C-166.405 936.7325 -171.685 936.4025 -177.125 936.0625 C-177.125 934.7425 -177.125 933.4225 -177.125 932.0625 C-180.095 932.0625 -183.065 932.0625 -186.125 932.0625 C-186.91416484 927.88903336 -187.25008548 923.95221686 -187.25034916 919.70727539 C-187.25285268 918.43965551 -187.2553562 917.17203564 -187.25793558 915.86600304 C-187.25565896 914.46405396 -187.25329077 913.06210503 -187.25084114 911.66015625 C-187.2518844 910.16102374 -187.25336574 908.66189148 -187.25524551 907.16275978 C-187.25915049 903.02828717 -187.25680384 898.89383781 -187.25346755 894.75936556 C-187.25093706 890.26701503 -187.25418831 885.77466814 -187.25671089 881.28231812 C-187.26032843 873.40392849 -187.26020942 865.52554571 -187.25766373 857.64715576 C-187.25388851 845.93190308 -187.2558112 834.21665621 -187.25887203 822.50140357 C-187.2641443 801.58060149 -187.26367879 780.65980246 -187.26079312 759.73900008 C-187.25828018 741.43114296 -187.25761964 723.12328695 -187.25881577 704.81542969 C-187.25889215 703.60227309 -187.25896854 702.3891165 -187.25904724 701.13919759 C-187.25935856 696.21492708 -187.25967696 691.29065657 -187.260007 686.36638606 C-187.26306782 640.1480126 -187.26028965 593.9296411 -187.2549101 547.71126795 C-187.2501643 506.62521926 -187.25058892 465.53917366 -187.25537109 424.453125 C-187.26072266 378.32070874 -187.26285077 332.18829421 -187.25975883 286.05587769 C-187.2594381 281.14044189 -187.25912526 276.2250061 -187.25881577 271.30957031 C-187.25873669 270.09921403 -187.25865761 268.88885775 -187.25857614 267.64182401 C-187.2574374 249.34292126 -187.2587713 231.04401976 -187.26129532 212.74511719 C-187.26415013 191.94397412 -187.26344927 171.14283459 -187.25801457 150.34169197 C-187.25507147 138.69187988 -187.25489643 127.04207543 -187.25866075 115.39226353 C-187.26089592 107.61937991 -187.25952067 99.84650243 -187.25515598 92.07361972 C-187.25276767 87.6391256 -187.25198357 83.20464671 -187.25556196 78.77015305 C-187.2587815 74.73942703 -187.25743543 70.70872983 -187.2523813 66.67800593 C-187.25137059 65.22564165 -187.25204952 63.77327501 -187.25458724 62.3209126 C-187.25778263 60.35318536 -187.25423538 58.38545061 -187.25034916 56.41772461 C-187.2502814 55.32689072 -187.25021365 54.23605682 -187.25014383 53.11216736 C-187.125 50.0625 -187.125 50.0625 -186.125 44.0625 C-179.69 43.5675 -179.69 43.5675 -173.125 43.0625 C-173.125 42.0725 -173.125 41.0825 -173.125 40.0625 C-165.205 39.5675 -165.205 39.5675 -157.125 39.0625 C-156.795 38.0725 -156.465 37.0825 -156.125 36.0625 C-154.53558594 36.00642578 -154.53558594 36.00642578 -152.9140625 35.94921875 C-151.52600576 35.88356742 -150.13798651 35.81711979 -148.75 35.75 C-147.70199219 35.71616211 -147.70199219 35.71616211 -146.6328125 35.68164062 C-144.35211059 35.59265704 -144.35211059 35.59265704 -141.125 35.0625 C-140.465 34.0725 -139.805 33.0825 -139.125 32.0625 C-136.515379 31.67838725 -134.1191926 31.45956803 -131.5 31.375 C-130.44039062 31.32375977 -130.44039062 31.32375977 -129.359375 31.27148438 C-127.61514312 31.18898692 -125.87009605 31.12406665 -124.125 31.0625 C-124.125 30.4025 -124.125 29.7425 -124.125 29.0625 C-120.953262 27.476631 -117.48986178 27.68383555 -114 27.5 C-113.24589844 27.45681641 -112.49179688 27.41363281 -111.71484375 27.36914062 C-109.85178112 27.2630168 -107.98841476 27.16224999 -106.125 27.0625 C-105.63 25.5775 -105.63 25.5775 -105.125 24.0625 C-99.845 24.0625 -94.565 24.0625 -89.125 24.0625 C-89.125 22.7425 -89.125 21.4225 -89.125 20.0625 C-83.845 19.7325 -78.565 19.4025 -73.125 19.0625 C-72.63 17.5775 -72.63 17.5775 -72.125 16.0625 C-67.175 15.7325 -62.225 15.4025 -57.125 15.0625 C-57.125 14.4025 -57.125 13.7425 -57.125 13.0625 C-54.1634304 11.5817152 -51.28993705 11.70935963 -48 11.5 C-46.71867187 11.41621094 -45.43734375 11.33242187 -44.1171875 11.24609375 C-43.12976562 11.18550781 -42.14234375 11.12492188 -41.125 11.0625 C-40.795 10.0725 -40.465 9.0825 -40.125 8.0625 C-32.205 7.5675 -32.205 7.5675 -24.125 7.0625 C-23.795 6.0725 -23.465 5.0825 -23.125 4.0625 C-18.175 3.7325 -13.225 3.4025 -8.125 3.0625 C-8.125 2.4025 -8.125 1.7425 -8.125 1.0625 C-5.36047967 -0.31976016 -3.0788637 -0.03275387 0 0 Z " fill="#1E528B" transform="translate(1157.125,213.9375)"/>
<path d="M0 0 C1.32 0 2.64 0 4 0 C5.34204834 4.02614501 5.13933805 7.90120076 5.13061053 12.09936732 C5.1335693 13.52279209 5.1335693 13.52279209 5.13658784 14.97497291 C5.14203498 18.19145653 5.1402998 21.4078976 5.1386652 24.62438488 C5.1411105 26.94896932 5.14399373 29.27355334 5.14727798 31.59813675 C5.15426687 37.35997981 5.15657076 43.1218119 5.15698211 48.88365887 C5.15774405 55.82923961 5.16432431 62.77481175 5.17110313 69.72038879 C5.18360549 82.70210863 5.19136472 95.6838275 5.19658089 108.66555214 C5.20188877 121.82759954 5.20936388 134.98964303 5.21950912 148.15168762 C5.22014776 148.98190318 5.22078639 149.81211874 5.22144438 150.66749235 C5.22471062 154.90049569 5.22801236 159.13349901 5.23132664 163.36650232 C5.25526541 194.03394651 5.27436914 224.70139219 5.29092598 255.36884117 C5.30734094 285.74734358 5.32581461 316.1258436 5.34705925 346.50434303 C5.34771764 347.44714998 5.34837604 348.38995692 5.34905439 349.36133377 C5.35506875 357.97219331 5.36110855 366.58305284 5.36717889 375.19391234 C5.38226998 396.6012815 5.39704188 418.00865087 5.41159725 439.41602039 C5.41226039 440.39095555 5.41292353 441.36589071 5.41360676 442.37036936 C5.44585097 489.81632868 5.47441795 537.26229012 5.50268555 584.70825195 C5.5124993 601.17679852 5.5223293 617.64534508 5.53222656 634.1138916 C5.53314726 635.64592509 5.53314726 635.64592509 5.53408656 637.20890874 C5.56263305 684.67305754 5.5937887 732.13720452 5.62561907 779.60135121 C5.62768502 782.68207228 5.62974984 785.76279335 5.63181442 788.84351441 C5.64549815 809.25930288 5.65922689 829.67509131 5.67298577 850.09087972 C5.70036303 890.71458913 5.72747582 931.33829871 5.75440695 971.96200841 C5.75568953 973.89669469 5.7569723 975.83138097 5.75825526 977.76606725 C5.81602284 1064.8813968 5.87071335 1151.99672819 5.92407227 1239.11206055 C5.92457201 1239.92791993 5.92507175 1240.74377931 5.92558663 1241.5843617 C5.95057879 1282.38957435 5.97539546 1323.19478711 6 1364 C4.02 1364 2.04 1364 0 1364 C-0.33 1363.01 -0.66 1362.02 -1 1361 C-3.31 1360.67 -5.62 1360.34 -8 1360 C-8.33 1358.68 -8.66 1357.36 -9 1356 C-11.31 1356 -13.62 1356 -16 1356 C-16.33 1354.68 -16.66 1353.36 -17 1352 C-19.31 1352 -21.62 1352 -24 1352 C-24.33 1350.68 -24.66 1349.36 -25 1348 C-27.31 1348 -29.62 1348 -32 1348 C-32.33 1346.68 -32.66 1345.36 -33 1344 C-35.64 1344 -38.28 1344 -41 1344 C-41 1342.68 -41 1341.36 -41 1340 C-43.64 1340 -46.28 1340 -49 1340 C-49 1338.68 -49 1337.36 -49 1336 C-51.64 1336 -54.28 1336 -57 1336 C-57 1334.68 -57 1333.36 -57 1332 C-59.64 1332 -62.28 1332 -65 1332 C-65 1330.68 -65 1329.36 -65 1328 C-67.64 1328 -70.28 1328 -73 1328 C-73.495 1326.515 -73.495 1326.515 -74 1325 C-76.31 1324.67 -78.62 1324.34 -81 1324 C-81.495 1322.515 -81.495 1322.515 -82 1321 C-84.31 1320.67 -86.62 1320.34 -89 1320 C-89.495 1318.515 -89.495 1318.515 -90 1317 C-92.31 1316.67 -94.62 1316.34 -97 1316 C-97.495 1314.515 -97.495 1314.515 -98 1313 C-100.31 1312.67 -102.62 1312.34 -105 1312 C-105.495 1310.515 -105.495 1310.515 -106 1309 C-108.31 1308.67 -110.62 1308.34 -113 1308 C-113.495 1306.515 -113.495 1306.515 -114 1305 C-116.31 1304.67 -118.62 1304.34 -121 1304 C-121.495 1302.515 -121.495 1302.515 -122 1301 C-124.31 1300.67 -126.62 1300.34 -129 1300 C-129.495 1298.515 -129.495 1298.515 -130 1297 C-132.31 1296.67 -134.62 1296.34 -137 1296 C-137.495 1294.515 -137.495 1294.515 -138 1293 C-140.31 1292.67 -142.62 1292.34 -145 1292 C-145.495 1290.515 -145.495 1290.515 -146 1289 C-148.31 1288.67 -150.62 1288.34 -153 1288 C-153.495 1286.515 -153.495 1286.515 -154 1285 C-156.31 1284.67 -158.62 1284.34 -161 1284 C-161.495 1282.515 -161.495 1282.515 -162 1281 C-164.31 1280.67 -166.62 1280.34 -169 1280 C-169.33 1279.01 -169.66 1278.02 -170 1277 C-171.87387216 1276.19787372 -171.87387216 1276.19787372 -174.0625 1275.8125 C-174.79597656 1275.65394531 -175.52945312 1275.49539063 -176.28515625 1275.33203125 C-176.85105469 1275.22246094 -177.41695313 1275.11289063 -178 1275 C-178 1274.34 -178 1273.68 -178 1273 C-180.64 1272.34 -183.28 1271.68 -186 1271 C-186 1270.34 -186 1269.68 -186 1269 C-188.64 1268.34 -191.28 1267.68 -194 1267 C-194.00549791 1231.20450849 -194.01076989 1195.40901696 -194.01586914 1159.61352539 C-194.01596894 1158.91310878 -194.01606874 1158.21269217 -194.01617156 1157.49105082 C-194.02685552 1082.46395898 -194.03607951 1007.43686713 -194.04234314 932.40977478 C-194.04248259 930.74386077 -194.04262204 929.07794677 -194.04276149 927.41203276 C-194.04568397 892.44666146 -194.04840071 857.48129015 -194.05087968 822.51591882 C-194.05212511 804.95253858 -194.05341008 787.38915834 -194.05473244 769.82577811 C-194.05493169 767.17635253 -194.05512981 764.52692695 -194.05532788 761.87750137 C-194.05838908 721.06374011 -194.0623002 680.24997915 -194.06866455 639.43621826 C-194.06880145 638.55819994 -194.06893835 637.68018161 -194.0690794 636.77555667 C-194.07129186 622.61864536 -194.07357543 608.46173407 -194.07586844 594.30482277 C-194.08246921 553.54533734 -194.0885471 512.78585214 -194.09113979 472.02636623 C-194.09119333 471.1887774 -194.09124686 470.35118856 -194.09130202 469.48821824 C-194.09246759 451.1043297 -194.09336253 432.72044115 -194.09400098 414.33655258 C-194.09426262 406.94031014 -194.09456324 399.54406769 -194.09487724 392.14782524 C-194.09492738 390.93356995 -194.09492738 390.93356995 -194.09497854 389.69478425 C-194.09607628 363.58107855 -194.10035172 337.46737455 -194.10628221 311.35366954 C-194.11223819 285.0639841 -194.11510167 258.77430032 -194.11362399 232.48461419 C-194.11342089 228.85734165 -194.11325351 225.2300691 -194.11310768 221.60279655 C-194.1130778 220.89170476 -194.11304792 220.18061296 -194.11301713 219.44797293 C-194.11263546 208.15692208 -194.11562988 196.86587471 -194.12000986 185.57482481 C-194.12424089 174.49086817 -194.12486659 163.40691515 -194.12183181 152.32295783 C-194.12031133 146.38597703 -194.12043018 140.44900793 -194.12488318 134.51202834 C-194.12889425 129.12375762 -194.12840484 123.73550785 -194.12413998 118.34723749 C-194.12341872 116.39782349 -194.12441689 114.448408 -194.12723524 112.4989959 C-194.13079224 109.87472847 -194.12832016 107.25053759 -194.1241985 104.62627274 C-194.12670737 103.85745528 -194.12921625 103.08863782 -194.13180115 102.29652286 C-194.11415501 97.11415501 -194.11415501 97.11415501 -193 96 C-190.67182036 95.63239269 -188.3381615 95.29758419 -186 95 C-185.67 94.01 -185.34 93.02 -185 92 C-181.535 91.505 -181.535 91.505 -178 91 C-177.505 89.515 -177.505 89.515 -177 88 C-173.535 87.505 -173.535 87.505 -170 87 C-169.505 85.515 -169.505 85.515 -169 84 C-165.535 83.505 -165.535 83.505 -162 83 C-161.505 81.515 -161.505 81.515 -161 80 C-158.69 79.67 -156.38 79.34 -154 79 C-153.505 77.515 -153.505 77.515 -153 76 C-150.69 75.67 -148.38 75.34 -146 75 C-145.505 73.515 -145.505 73.515 -145 72 C-142.69 71.67 -140.38 71.34 -138 71 C-137.505 69.515 -137.505 69.515 -137 68 C-134.69 67.67 -132.38 67.34 -130 67 C-129.505 65.515 -129.505 65.515 -129 64 C-125.535 63.505 -125.535 63.505 -122 63 C-121.67 62.01 -121.34 61.02 -121 60 C-117.535 59.505 -117.535 59.505 -114 59 C-113.67 58.01 -113.34 57.02 -113 56 C-109.535 55.505 -109.535 55.505 -106 55 C-105.67 54.01 -105.34 53.02 -105 52 C-101.535 51.505 -101.535 51.505 -98 51 C-97.67 50.01 -97.34 49.02 -97 48 C-93.535 47.505 -93.535 47.505 -90 47 C-89.67 46.01 -89.34 45.02 -89 44 C-87.329375 43.8453125 -87.329375 43.8453125 -85.625 43.6875 C-84.42875 43.460625 -83.2325 43.23375 -82 43 C-81.34 42.01 -80.68 41.02 -80 40 C-78 39.66666667 -76 39.33333333 -74 39 C-73.34 38.01 -72.68 37.02 -72 36 C-70 35.66666667 -68 35.33333333 -66 35 C-65.34 34.01 -64.68 33.02 -64 32 C-60.375 31.8125 -60.375 31.8125 -57 32 C-56.67 30.68 -56.34 29.36 -56 28 C-53.69 28 -51.38 28 -49 28 C-48.67 26.68 -48.34 25.36 -48 24 C-45.69 24 -43.38 24 -41 24 C-40.67 22.68 -40.34 21.36 -40 20 C-37.69 20 -35.38 20 -33 20 C-32.67 18.68 -32.34 17.36 -32 16 C-29.69 16 -27.38 16 -25 16 C-24.67 14.68 -24.34 13.36 -24 12 C-21.69 12 -19.38 12 -17 12 C-16.67 10.68 -16.34 9.36 -16 8 C-13.69 8 -11.38 8 -9 8 C-8.67 6.68 -8.34 5.36 -8 4 C-5.69 4 -3.38 4 -1 4 C-0.67 2.68 -0.34 1.36 0 0 Z " fill="#1E528B" transform="translate(503,22)"/>
<path d="M0 0 C1.65322266 0.01740234 1.65322266 0.01740234 3.33984375 0.03515625 C4.99693359 0.04869141 4.99693359 0.04869141 6.6875 0.0625 C7.54214844 0.07410156 8.39679687 0.08570312 9.27734375 0.09765625 C9.60734375 1.41765625 9.93734375 2.73765625 10.27734375 4.09765625 C12.58734375 4.09765625 14.89734375 4.09765625 17.27734375 4.09765625 C17.60734375 5.41765625 17.93734375 6.73765625 18.27734375 8.09765625 C20.58734375 8.09765625 22.89734375 8.09765625 25.27734375 8.09765625 C25.60734375 9.41765625 25.93734375 10.73765625 26.27734375 12.09765625 C28.58734375 12.09765625 30.89734375 12.09765625 33.27734375 12.09765625 C33.77234375 14.07765625 33.77234375 14.07765625 34.27734375 16.09765625 C36.58734375 16.09765625 38.89734375 16.09765625 41.27734375 16.09765625 C41.77234375 18.07765625 41.77234375 18.07765625 42.27734375 20.09765625 C44.91734375 20.09765625 47.55734375 20.09765625 50.27734375 20.09765625 C50.27734375 21.41765625 50.27734375 22.73765625 50.27734375 24.09765625 C52.91734375 24.09765625 55.55734375 24.09765625 58.27734375 24.09765625 C58.27734375 25.41765625 58.27734375 26.73765625 58.27734375 28.09765625 C60.91734375 28.09765625 63.55734375 28.09765625 66.27734375 28.09765625 C66.77234375 29.58265625 66.77234375 29.58265625 67.27734375 31.09765625 C69.58734375 31.42765625 71.89734375 31.75765625 74.27734375 32.09765625 C74.60734375 33.08765625 74.93734375 34.07765625 75.27734375 35.09765625 C77.58734375 35.42765625 79.89734375 35.75765625 82.27734375 36.09765625 C82.60734375 37.08765625 82.93734375 38.07765625 83.27734375 39.09765625 C85.58734375 39.42765625 87.89734375 39.75765625 90.27734375 40.09765625 C90.60734375 41.08765625 90.93734375 42.07765625 91.27734375 43.09765625 C93.58734375 43.42765625 95.89734375 43.75765625 98.27734375 44.09765625 C98.60734375 45.08765625 98.93734375 46.07765625 99.27734375 47.09765625 C101.58734375 47.42765625 103.89734375 47.75765625 106.27734375 48.09765625 C106.60734375 49.08765625 106.93734375 50.07765625 107.27734375 51.09765625 C109.58734375 51.42765625 111.89734375 51.75765625 114.27734375 52.09765625 C114.60734375 53.08765625 114.93734375 54.07765625 115.27734375 55.09765625 C117.58734375 55.42765625 119.89734375 55.75765625 122.27734375 56.09765625 C122.60734375 57.08765625 122.93734375 58.07765625 123.27734375 59.09765625 C125.58734375 59.42765625 127.89734375 59.75765625 130.27734375 60.09765625 C130.60734375 61.08765625 130.93734375 62.07765625 131.27734375 63.09765625 C133.58734375 63.42765625 135.89734375 63.75765625 138.27734375 64.09765625 C138.60734375 65.08765625 138.93734375 66.07765625 139.27734375 67.09765625 C141.58734375 67.42765625 143.89734375 67.75765625 146.27734375 68.09765625 C146.60734375 69.08765625 146.93734375 70.07765625 147.27734375 71.09765625 C149.58734375 71.42765625 151.89734375 71.75765625 154.27734375 72.09765625 C154.60734375 73.08765625 154.93734375 74.07765625 155.27734375 75.09765625 C157.58734375 75.42765625 159.89734375 75.75765625 162.27734375 76.09765625 C162.60734375 77.08765625 162.93734375 78.07765625 163.27734375 79.09765625 C165.58734375 79.42765625 167.89734375 79.75765625 170.27734375 80.09765625 C170.60734375 81.08765625 170.93734375 82.07765625 171.27734375 83.09765625 C173.58734375 83.42765625 175.89734375 83.75765625 178.27734375 84.09765625 C178.60734375 85.08765625 178.93734375 86.07765625 179.27734375 87.09765625 C181.58734375 87.42765625 183.89734375 87.75765625 186.27734375 88.09765625 C186.60734375 89.08765625 186.93734375 90.07765625 187.27734375 91.09765625 C188.41171875 91.24203125 189.54609375 91.38640625 190.71484375 91.53515625 C194.27734375 92.09765625 194.27734375 92.09765625 195.27734375 93.09765625 C195.37702357 95.64819559 195.41062708 98.17169305 195.40269291 100.72277832 C195.40409523 101.53641214 195.40549755 102.35004597 195.40694236 103.18833536 C195.41046348 105.95565339 195.40676462 108.72291704 195.40318489 111.49023438 C195.40422659 113.48644824 195.40570676 115.48266191 195.40758926 117.47887516 C195.41151662 123.01678707 195.40913604 128.55468177 195.4058113 134.09259343 C195.4032915 140.09753222 195.40652776 146.10246822 195.40905464 152.10740662 C195.41268008 162.64915108 195.41258196 173.19089112 195.41000748 183.7326355 C195.40726057 195.04914441 195.40667237 206.36565033 195.40874481 217.68215942 C195.40887398 218.39571842 195.40900316 219.10927741 195.40913624 219.84445941 C195.40966949 222.75045683 195.41021819 225.65645424 195.41078652 228.56245166 C195.41608211 255.65898527 195.4164318 282.75551687 195.41363907 309.85205078 C195.41355627 310.65575021 195.41347348 311.45944963 195.41338817 312.28750359 C195.41326378 313.49496727 195.41326378 313.49496727 195.41313687 314.72682416 C195.41061682 339.22006401 195.40996084 363.71330302 195.41115952 388.20654297 C195.41123699 389.84473677 195.41131415 391.48293058 195.41139099 393.12112439 C195.41170143 399.70383018 195.4120201 406.28653598 195.41235075 412.86924177 C195.4132679 431.27228422 195.4138384 449.67532667 195.41413689 468.07836914 C195.41415053 468.91650109 195.41416418 469.75463303 195.41417824 470.61816292 C195.4145877 497.33715756 195.41345965 524.05615193 195.41128731 550.77514648 C195.41121706 551.64215042 195.41114681 552.50915436 195.41107443 553.40243115 C195.40992939 567.48329912 195.40870997 581.56416709 195.40748426 595.64503506 C195.40262767 651.49643042 195.40285308 707.34782339 195.40771484 763.19921875 C195.40893597 777.27286784 195.41014699 791.34651692 195.41128731 805.42016602 C195.41135776 806.28665288 195.4114282 807.15313975 195.41150079 808.04588379 C195.41365596 834.73623702 195.41457144 861.42659005 195.41413689 888.11694336 C195.4141233 888.95446508 195.41410972 889.7919868 195.41409572 890.65488796 C195.41378329 909.03725376 195.41314973 927.41961954 195.41222638 945.80198532 C195.41189722 952.37891651 195.41158414 958.95584771 195.41127567 965.5327789 C195.41119828 967.169049 195.41111955 968.8053191 195.41103948 970.44158919 C195.40984434 994.93032945 195.41086531 1019.41906877 195.41338817 1043.90780891 C195.41347097 1044.71150834 195.41355376 1045.51520777 195.41363907 1046.34326172 C195.41372175 1047.14548797 195.41380443 1047.94771423 195.41388962 1048.77425037 C195.41664361 1075.79027577 195.41564187 1102.80629875 195.41035832 1129.8223238 C195.40980593 1132.71926689 195.40926923 1135.61620998 195.40874481 1138.51315308 C195.4085495 1139.57964028 195.4085495 1139.57964028 195.40835025 1140.66767269 C195.40637254 1151.95711342 195.40775673 1163.24655118 195.41051382 1174.53599165 C195.41314951 1185.61833681 195.41216319 1196.70067781 195.40749973 1207.78302258 C195.40510422 1213.7191212 195.40434192 1219.6552084 195.40790571 1225.59130669 C195.4111074 1230.97876558 195.40980561 1236.36620281 195.40472505 1241.75366008 C195.40370793 1243.70277738 195.40440967 1245.65189642 195.40693099 1247.60101235 C195.41008745 1250.22488003 195.40721521 1252.84867025 195.40269291 1255.47253418 C195.40508366 1256.24123351 195.4074744 1257.00993283 195.40993759 1257.80192608 C195.39149944 1262.98350056 195.39149944 1262.98350056 194.27734375 1264.09765625 C191.94916411 1264.46526356 189.61550525 1264.80007206 187.27734375 1265.09765625 C186.94734375 1266.08765625 186.61734375 1267.07765625 186.27734375 1268.09765625 C183.96734375 1268.42765625 181.65734375 1268.75765625 179.27734375 1269.09765625 C178.94734375 1270.08765625 178.61734375 1271.07765625 178.27734375 1272.09765625 C175.96734375 1272.42765625 173.65734375 1272.75765625 171.27734375 1273.09765625 C170.94734375 1274.08765625 170.61734375 1275.07765625 170.27734375 1276.09765625 C167.96734375 1276.42765625 165.65734375 1276.75765625 163.27734375 1277.09765625 C162.94734375 1278.08765625 162.61734375 1279.07765625 162.27734375 1280.09765625 C159.96734375 1280.42765625 157.65734375 1280.75765625 155.27734375 1281.09765625 C154.94734375 1282.08765625 154.61734375 1283.07765625 154.27734375 1284.09765625 C151.96734375 1284.42765625 149.65734375 1284.75765625 147.27734375 1285.09765625 C146.94734375 1286.08765625 146.61734375 1287.07765625 146.27734375 1288.09765625 C143.96734375 1288.42765625 141.65734375 1288.75765625 139.27734375 1289.09765625 C138.94734375 1290.08765625 138.61734375 1291.07765625 138.27734375 1292.09765625 C135.96734375 1292.42765625 133.65734375 1292.75765625 131.27734375 1293.09765625 C130.94734375 1294.08765625 130.61734375 1295.07765625 130.27734375 1296.09765625 C129.16359375 1296.20078125 128.04984375 1296.30390625 126.90234375 1296.41015625 C125.70609375 1296.63703125 124.50984375 1296.86390625 123.27734375 1297.09765625 C122.61734375 1298.08765625 121.95734375 1299.07765625 121.27734375 1300.09765625 C118.15234375 1300.78515625 118.15234375 1300.78515625 115.27734375 1301.09765625 C114.94734375 1302.08765625 114.61734375 1303.07765625 114.27734375 1304.09765625 C111.96734375 1304.42765625 109.65734375 1304.75765625 107.27734375 1305.09765625 C106.94734375 1306.08765625 106.61734375 1307.07765625 106.27734375 1308.09765625 C103.96734375 1308.42765625 101.65734375 1308.75765625 99.27734375 1309.09765625 C98.94734375 1310.08765625 98.61734375 1311.07765625 98.27734375 1312.09765625 C95.96734375 1312.42765625 93.65734375 1312.75765625 91.27734375 1313.09765625 C90.94734375 1314.08765625 90.61734375 1315.07765625 90.27734375 1316.09765625 C87.96734375 1316.42765625 85.65734375 1316.75765625 83.27734375 1317.09765625 C82.94734375 1318.08765625 82.61734375 1319.07765625 82.27734375 1320.09765625 C79.96734375 1320.42765625 77.65734375 1320.75765625 75.27734375 1321.09765625 C74.94734375 1322.08765625 74.61734375 1323.07765625 74.27734375 1324.09765625 C71.63734375 1324.09765625 68.99734375 1324.09765625 66.27734375 1324.09765625 C65.94734375 1325.41765625 65.61734375 1326.73765625 65.27734375 1328.09765625 C62.96734375 1328.09765625 60.65734375 1328.09765625 58.27734375 1328.09765625 C57.94734375 1329.41765625 57.61734375 1330.73765625 57.27734375 1332.09765625 C54.96734375 1332.09765625 52.65734375 1332.09765625 50.27734375 1332.09765625 C49.94734375 1333.41765625 49.61734375 1334.73765625 49.27734375 1336.09765625 C46.96734375 1336.09765625 44.65734375 1336.09765625 42.27734375 1336.09765625 C41.94734375 1337.41765625 41.61734375 1338.73765625 41.27734375 1340.09765625 C38.96734375 1340.09765625 36.65734375 1340.09765625 34.27734375 1340.09765625 C33.94734375 1341.41765625 33.61734375 1342.73765625 33.27734375 1344.09765625 C30.96734375 1344.42765625 28.65734375 1344.75765625 26.27734375 1345.09765625 C25.94734375 1346.08765625 25.61734375 1347.07765625 25.27734375 1348.09765625 C22.96734375 1348.42765625 20.65734375 1348.75765625 18.27734375 1349.09765625 C17.94734375 1350.08765625 17.61734375 1351.07765625 17.27734375 1352.09765625 C14.96734375 1352.42765625 12.65734375 1352.75765625 10.27734375 1353.09765625 C9.94734375 1354.08765625 9.61734375 1355.07765625 9.27734375 1356.09765625 C5.97734375 1356.09765625 2.67734375 1356.09765625 -0.72265625 1356.09765625 C-0.22765625 1357.58265625 -0.22765625 1357.58265625 0.27734375 1359.09765625 C-0.38265625 1359.09765625 -1.04265625 1359.09765625 -1.72265625 1359.09765625 C-1.72265625 1358.10765625 -1.72265625 1357.11765625 -1.72265625 1356.09765625 C-2.38265625 1356.09765625 -3.04265625 1356.09765625 -3.72265625 1356.09765625 C-3.72815416 1314.64135745 -3.73342613 1273.18505862 -3.73852539 1231.72875977 C-3.73862519 1230.91757774 -3.73872499 1230.10639572 -3.73882781 1229.27063242 C-3.74951173 1142.378903 -3.75873573 1055.48717358 -3.76499939 968.59544373 C-3.76513884 966.66609391 -3.76527829 964.7367441 -3.76541774 962.80739429 C-3.76834021 922.31288255 -3.77105695 881.8183708 -3.77353593 841.32385904 C-3.77478136 820.98316005 -3.77606633 800.64246107 -3.77738869 780.30176209 C-3.77758794 777.23337886 -3.77778606 774.16499563 -3.77798413 771.0966124 C-3.78104535 723.8286903 -3.78495649 676.56076846 -3.7913208 629.29284668 C-3.7914577 628.27597475 -3.7915946 627.25910282 -3.79173565 626.21141659 C-3.79394811 609.81566148 -3.79623168 593.41990639 -3.79852469 577.02415129 C-3.80512542 529.81898503 -3.81120333 482.61381898 -3.81379604 435.40865231 C-3.81384958 434.43861574 -3.81390311 433.46857918 -3.81395827 432.46914757 C-3.81512384 411.1782626 -3.81601878 389.88737763 -3.81665723 368.59649264 C-3.81691887 360.03071267 -3.81721949 351.46493271 -3.81753349 342.89915276 C-3.81756692 341.96164552 -3.81760035 341.02413829 -3.81763479 340.05822174 C-3.81873254 309.81483028 -3.82300804 279.57144029 -3.82893846 249.32804943 C-3.83489433 218.88106105 -3.83775795 188.4340741 -3.83628024 157.98708513 C-3.83607714 153.7862967 -3.83590976 149.58550828 -3.83576393 145.38471985 C-3.83573405 144.56119518 -3.83570417 143.73767052 -3.83567338 142.88919056 C-3.8352917 129.81243449 -3.83828624 116.73568141 -3.84266611 103.65892616 C-3.84689695 90.82228201 -3.84760683 77.98564177 -3.84448806 65.14899726 C-3.84291634 58.27310381 -3.842954 51.39721956 -3.84753943 44.52132721 C-3.85155006 38.28110622 -3.85106152 32.04090333 -3.84679623 25.80068267 C-3.84607488 23.54286489 -3.8470735 21.28504582 -3.84989149 19.02722969 C-3.85344764 15.9881818 -3.85097707 12.94920005 -3.84685475 9.9101544 C-3.84936362 9.01937508 -3.8518725 8.12859577 -3.8544574 7.21082314 C-3.83365118 0.13750542 -3.83365118 0.13750542 0 0 Z " fill="#488AC5" transform="translate(775.72265625,25.90234375)"/>
<path d="M0 0 C1.98 0 3.96 0 6 0 C6.33 0.99 6.66 1.98 7 3 C9.31 3.33 11.62 3.66 14 4 C14.33 4.99 14.66 5.98 15 7 C17.31 7.33 19.62 7.66 22 8 C22.33 8.99 22.66 9.98 23 11 C25.31 11.33 27.62 11.66 30 12 C30.495 13.485 30.495 13.485 31 15 C33.31 15.33 35.62 15.66 38 16 C38.495 17.485 38.495 17.485 39 19 C41.31 19.33 43.62 19.66 46 20 C46.495 21.485 46.495 21.485 47 23 C49.31 23.33 51.62 23.66 54 24 C54.495 25.98 54.495 25.98 55 28 C57.31 28 59.62 28 62 28 C62.495 29.98 62.495 29.98 63 32 C65.31 32 67.62 32 70 32 C70.495 33.98 70.495 33.98 71 36 C73.64 36 76.28 36 79 36 C79 37.32 79 38.64 79 40 C81.64 40 84.28 40 87 40 C87 41.32 87 42.64 87 44 C89.64 44 92.28 44 95 44 C95 45.32 95 46.64 95 48 C97.64 48 100.28 48 103 48 C104.08147041 51.24441122 104.12468526 53.58227621 104.1241985 56.99594516 C104.12644579 58.25979392 104.12869308 59.52364269 104.13100848 60.8257899 C104.12844248 62.2390526 104.12578555 63.65231513 104.12304783 65.06557751 C104.12378698 66.5647346 104.12496505 68.06389153 104.12654433 69.56304798 C104.12962736 73.7115351 104.12642666 77.85999791 104.12226619 82.00848324 C104.11884404 86.5107203 104.12120048 91.01295479 104.12284368 95.51519233 C104.12492185 103.41541526 104.12326612 111.31563068 104.11920547 119.21585274 C104.11318412 130.96329654 104.1128684 142.71073558 104.11374746 154.45818064 C104.11506313 174.21679337 104.11171326 193.97540276 104.10573006 213.73401451 C104.09981869 233.30542708 104.09596526 252.87683827 104.09487724 272.44825172 C104.0948085 273.66387163 104.09473976 274.87949154 104.09466894 276.13194841 C104.09433062 282.30514092 104.09402923 288.47833344 104.09374207 294.65152595 C104.09164009 338.40806577 104.08489838 382.16460378 104.07543945 425.92114258 C104.06625923 468.43741852 104.05917355 510.95369397 104.05493164 553.4699707 C104.05480011 554.77986316 104.05466859 556.08975562 104.05453308 557.43934178 C104.05321459 570.59348465 104.05193877 583.74762753 104.05069422 596.9017704 C104.04815781 623.69971647 104.04533656 650.4976625 104.04234314 677.29560852 C104.0421372 679.14391139 104.0421372 679.14391139 104.04192711 681.02955372 C104.0327221 763.35303657 104.0168764 845.67651841 104 928 C101.36 928 98.72 928 96 928 C96 929.32 96 930.64 96 932 C93.36 932 90.72 932 88 932 C88 933.32 88 934.64 88 936 C85.36 936.33 82.72 936.66 80 937 C80 937.99 80 938.98 80 940 C77.36 940.33 74.72 940.66 72 941 C71.67 941.99 71.34 942.98 71 944 C68.69 944.33 66.38 944.66 64 945 C63.67 945.99 63.34 946.98 63 948 C60.69 948.33 58.38 948.66 56 949 C55.67 949.99 55.34 950.98 55 952 C52.69 952.33 50.38 952.66 48 953 C47.67 953.99 47.34 954.98 47 956 C44.36 956 41.72 956 39 956 C39 957.32 39 958.64 39 960 C36.36 960 33.72 960 31 960 C31 961.32 31 962.64 31 964 C28.36 964 25.72 964 23 964 C23 965.32 23 966.64 23 968 C20.36 968 17.72 968 15 968 C15 969.32 15 970.64 15 972 C12.36 972 9.72 972 7 972 C7 973.32 7 974.64 7 976 C4.03 976 1.06 976 -2 976 C-1.67 975.01 -1.34 974.02 -1 973 C-0.90443937 970.79780906 -0.87137249 968.59276246 -0.86938947 966.38850003 C-0.86741696 965.70898799 -0.86544445 965.02947595 -0.86341216 964.32937263 C-0.85797464 962.03128184 -0.85969877 959.7332508 -0.8613348 957.43515491 C-0.85888896 955.77227633 -0.85600557 954.10939834 -0.85272202 952.44652119 C-0.84491672 947.84346191 -0.84337856 943.24041796 -0.8427946 938.63735288 C-0.84107178 933.64234223 -0.83358995 928.64733981 -0.82681805 923.65233392 C-0.81573739 914.88692605 -0.80838007 906.12152109 -0.80341911 897.35610771 C-0.79602562 884.32213925 -0.78294542 871.28818089 -0.76867336 858.25421837 C-0.744831 836.33187411 -0.725633 814.40952772 -0.70907402 792.4871769 C-0.69265757 770.7722073 -0.67418326 749.05724105 -0.65294075 727.34227562 C-0.65228236 726.66827775 -0.65162396 725.99427988 -0.65094561 725.29985783 C-0.64493123 719.14406543 -0.63889142 712.98827306 -0.63282111 706.83248071 C-0.61773026 691.52881191 -0.60295833 676.22514282 -0.58840275 660.9214735 C-0.58773961 660.22452284 -0.58707647 659.52757218 -0.58639324 658.80950181 C-0.55415111 624.89408083 -0.52558307 590.9786569 -0.49731445 557.06323242 C-0.48750067 545.29154457 -0.47767066 533.51985673 -0.46777344 521.74816895 C-0.46715964 521.01810308 -0.46654584 520.28803721 -0.46591344 519.53584814 C-0.43736553 485.60673167 -0.40621024 451.67761774 -0.37438093 417.74850421 C-0.37231498 415.54621907 -0.37025016 413.34393392 -0.36818558 411.14164877 C-0.35450181 396.54717947 -0.34077308 381.9527102 -0.32701423 367.35824097 C-0.29963716 338.31804259 -0.27252435 309.27784397 -0.24559305 280.23764518 C-0.24431047 278.85462689 -0.2430277 277.4716086 -0.24174474 276.08859031 C-0.1603265 188.31788679 -0.08497529 100.54717795 0 0 Z " fill="#488AC5" transform="translate(1157,214)"/>
<path d="M0 0 C1.32 0 2.64 0 4 0 C5.12211911 3.60209456 5.12513882 6.96296464 5.12534916 10.72172374 C5.12675148 11.40100078 5.1281538 12.08027782 5.12959861 12.78013902 C5.13309664 15.07140351 5.12943244 17.3626013 5.12584114 19.65386486 C5.12688369 21.31419511 5.1283645 22.97452513 5.13024551 24.63485464 C5.13416067 29.226188 5.13179857 33.8175005 5.12846755 38.40883354 C5.12594196 43.39287896 5.12918634 48.37692107 5.13171089 53.36096603 C5.13533201 62.10560887 5.13520724 70.85024555 5.13266373 79.59488869 C5.12889179 92.59800961 5.13080947 105.60112529 5.13387203 118.60424617 C5.13884064 140.47536343 5.13901389 162.34647852 5.13629532 184.21759605 C5.13621252 184.88400369 5.13612973 185.55041133 5.13604442 186.23701314 C5.13592003 187.23821461 5.13592003 187.23821461 5.13579312 188.25964238 C5.13327217 208.57619491 5.13261751 228.89274644 5.13381577 249.20929909 C5.13389324 250.56861489 5.1339704 251.92793068 5.13404724 253.28724648 C5.13435769 258.74943581 5.13467635 264.21162514 5.135007 269.67381447 C5.13592409 284.94357565 5.13649463 300.21333683 5.13679314 315.48309803 C5.13680678 316.1784955 5.13682043 316.87389297 5.13683449 317.59036309 C5.13724388 339.75515894 5.13611625 361.91995444 5.13394356 384.08475018 C5.13387331 384.80385808 5.13380306 385.52296599 5.13373068 386.26386504 C5.13258567 397.94250516 5.13136624 409.62114526 5.13014051 421.29978537 C5.12528319 467.62930124 5.12551013 513.95881422 5.13037109 560.28833008 C5.13159222 571.96458022 5.13280325 583.64083035 5.13394356 595.3170805 C5.13401401 596.03597154 5.13408445 596.75486258 5.13415704 597.4955382 C5.1363122 619.63945264 5.13722769 641.78336684 5.13679314 663.92728138 C5.13677955 664.62213094 5.13676597 665.31698051 5.13675197 666.03288612 C5.13643954 681.28369827 5.13580599 696.53451041 5.13488263 711.78532254 C5.13455347 717.24174917 5.1342404 722.6981758 5.13393192 728.15460244 C5.13385453 729.51208829 5.1337758 730.86957415 5.13369573 732.22706001 C5.13250069 752.54174714 5.13352136 772.85643314 5.13604442 793.17112013 C5.13612722 793.83777616 5.13621001 794.50443218 5.13629532 795.1912899 C5.136378 795.85672263 5.13646068 796.52215535 5.13654587 797.2077527 C5.13929985 819.61697577 5.13829625 842.02619602 5.13301457 864.43541869 C5.13006733 877.36824156 5.12990233 890.30105754 5.13366075 903.23388023 C5.13589097 911.85567172 5.13452979 920.47745764 5.13015598 929.0992483 C5.12776069 934.0227359 5.12699773 938.94620974 5.13056196 943.86969694 C5.13376416 948.33829675 5.1324611 952.80687046 5.1273813 957.27546833 C5.12636437 958.89195381 5.12706544 960.50844139 5.12958724 962.12492522 C5.13274484 964.30142401 5.12987038 966.47782948 5.12534916 968.65432376 C5.1252814 969.86493031 5.12521365 971.07553686 5.12514383 972.32282845 C5 975 5 975 4 976 C2.33382885 976.04063832 0.66611905 976.042721 -1 976 C-1 974.68 -1 973.36 -1 972 C-3.64 972 -6.28 972 -9 972 C-9 970.68 -9 969.36 -9 968 C-11.64 968 -14.28 968 -17 968 C-17 966.68 -17 965.36 -17 964 C-19.64 964 -22.28 964 -25 964 C-25 962.68 -25 961.36 -25 960 C-27.64 960 -30.28 960 -33 960 C-33 958.68 -33 957.36 -33 956 C-35.64 956 -38.28 956 -41 956 C-41 954.68 -41 953.36 -41 952 C-43.64 952 -46.28 952 -49 952 C-49.495 950.515 -49.495 950.515 -50 949 C-52.31 948.67 -54.62 948.34 -57 948 C-57.495 946.515 -57.495 946.515 -58 945 C-60.31 944.67 -62.62 944.34 -65 944 C-65.495 942.515 -65.495 942.515 -66 941 C-68.31 940.67 -70.62 940.34 -73 940 C-73.33 939.01 -73.66 938.02 -74 937 C-76.64 936.67 -79.28 936.34 -82 936 C-82 935.01 -82 934.02 -82 933 C-84.64 932.67 -87.28 932.34 -90 932 C-90 930.68 -90 929.36 -90 928 C-92.31 928 -94.62 928 -97 928 C-98.35528305 925.28943389 -98.12516055 923.18109508 -98.12534916 920.1445294 C-98.12785268 918.88656344 -98.1303562 917.62859748 -98.13293558 916.33251134 C-98.13065839 914.92070241 -98.12829019 913.50889363 -98.12584114 912.097085 C-98.12688321 910.60341204 -98.12836367 909.10973934 -98.13024551 907.6160672 C-98.13416752 903.47812547 -98.13179504 899.34020684 -98.12846755 895.20226545 C-98.12594521 890.71315206 -98.12918504 886.22404238 -98.13171089 881.7349295 C-98.13533445 873.85611027 -98.13520575 865.97729787 -98.13266373 858.09847832 C-98.12889394 846.38268322 -98.13080836 834.66689394 -98.13387203 822.95109889 C-98.13914862 802.0310229 -98.13867706 781.11094995 -98.13579312 760.19087367 C-98.13328158 741.88318382 -98.13261899 723.57549509 -98.13381577 705.2678051 C-98.13389215 704.05532452 -98.13396854 702.84284394 -98.13404724 701.59362153 C-98.13435855 696.67225898 -98.13467695 691.75089643 -98.135007 686.82953389 C-98.13806886 640.62398488 -98.13528804 594.41843782 -98.1299101 548.21288912 C-98.12516448 507.12752074 -98.12558855 466.04215546 -98.13037109 424.95678711 C-98.13572139 378.83944445 -98.13785145 332.72210351 -98.13475883 286.60476059 C-98.13443809 281.69184395 -98.13412525 276.77892731 -98.13381577 271.86601067 C-98.13373669 270.65624927 -98.13365761 269.44648786 -98.13357614 268.20006703 C-98.13243684 249.90087493 -98.13377233 231.60168407 -98.13629532 213.30249214 C-98.13914872 192.50263024 -98.13845231 171.70277188 -98.13301457 150.90291042 C-98.13006901 139.25026622 -98.12989992 127.59762966 -98.13366075 115.94498565 C-98.13589301 108.17390157 -98.13452601 100.40282366 -98.13015598 92.6317405 C-98.12776356 88.19574303 -98.12699193 83.75976082 -98.13056196 79.3237638 C-98.13377129 75.29513615 -98.13245048 71.26653742 -98.1273813 67.23791191 C-98.12636693 65.78293364 -98.12705893 64.32795302 -98.12958724 62.87297659 C-98.13276029 60.90892637 -98.12925012 58.94486867 -98.12534916 56.98081976 C-98.1252814 55.88987081 -98.12521365 54.79892186 -98.12514383 53.67491386 C-98 51 -98 51 -97 48 C-94.36 48 -91.72 48 -89 48 C-89 46.68 -89 45.36 -89 44 C-86.36 44 -83.72 44 -81 44 C-81 42.68 -81 41.36 -81 40 C-78.36 40 -75.72 40 -73 40 C-72.67 38.68 -72.34 37.36 -72 36 C-69.69 36 -67.38 36 -65 36 C-64.67 34.68 -64.34 33.36 -64 32 C-61.69 32 -59.38 32 -57 32 C-56.67 30.68 -56.34 29.36 -56 28 C-53.69 27.67 -51.38 27.34 -49 27 C-48.505 25.515 -48.505 25.515 -48 24 C-45.69 23.67 -43.38 23.34 -41 23 C-40.505 21.515 -40.505 21.515 -40 20 C-37.69 19.67 -35.38 19.34 -33 19 C-32.505 17.515 -32.505 17.515 -32 16 C-28.535 15.505 -28.535 15.505 -25 15 C-24.67 14.01 -24.34 13.02 -24 12 C-20.535 11.505 -20.535 11.505 -17 11 C-16.67 10.01 -16.34 9.02 -16 8 C-12.535 7.505 -12.535 7.505 -9 7 C-8.67 6.01 -8.34 5.02 -8 4 C-4.535 3.505 -4.535 3.505 -1 3 C-0.67 2.01 -0.34 1.02 0 0 Z " fill="#1E528B" transform="translate(117,214)"/>
<path d="M0 0 C2.66103848 3.99155773 2.27751105 7.46511716 2.25480902 12.09936732 C2.25805962 13.04831717 2.26131022 13.99726701 2.26465932 14.97497291 C2.27319723 18.19150255 2.26735447 21.40785101 2.26171303 24.62438488 C2.26489726 26.94897016 2.26895831 29.27355438 2.27382231 31.59813675 C2.28357266 37.35999242 2.28394263 43.1217972 2.28052335 48.88365887 C2.27693435 55.82924612 2.28499483 62.77480749 2.29345289 69.72038879 C2.3089258 82.70211072 2.31490195 95.68382172 2.31578636 108.66555214 C2.31672162 121.82760283 2.32199613 134.98964107 2.33261681 148.15168762 C2.33361779 149.39701096 2.33361779 149.39701096 2.334639 150.66749235 C2.33806161 154.90049572 2.3415553 159.13349903 2.3450741 163.36650232 C2.37042172 194.0339462 2.38608859 224.70138896 2.39665604 255.36884117 C2.40715219 285.74734558 2.42177031 316.12584344 2.44193649 346.50434303 C2.44256048 347.44714998 2.44318446 348.38995692 2.44382735 349.36133377 C2.44952852 357.97219333 2.45528063 366.58305285 2.46109388 375.19391234 C2.47554551 396.60128133 2.48935804 418.00865071 2.50273705 439.41602039 C2.50334687 440.39095555 2.50395669 441.36589071 2.50458498 442.37036936 C2.53420653 489.8163278 2.55646548 537.26228932 2.578125 584.70825195 C2.58564713 601.17679853 2.59320178 617.6453451 2.60089111 634.1138916 C2.60136796 635.13524726 2.60184481 636.15660292 2.60233611 637.20890874 C2.62454065 684.67305858 2.65196927 732.13720497 2.68074883 779.60135121 C2.68261671 782.68207228 2.68448233 785.76279335 2.6863475 788.84351441 C2.69871147 809.2593029 2.71116555 829.67509133 2.72367998 850.09087972 C2.74858063 890.714589 2.77295173 931.3382986 2.79695912 971.96200841 C2.79810246 973.89669469 2.79924618 975.83138097 2.80039027 977.76606725 C2.85190331 1064.88139583 2.89725543 1151.99672723 2.93994141 1239.11206055 C2.94034121 1239.92791993 2.94074102 1240.74377931 2.94115294 1241.5843617 C2.96114445 1282.38957429 2.98078458 1323.19478704 3 1364 C2.01 1364 1.02 1364 0 1364 C0 913.88 0 463.76 0 0 Z " fill="#215A98" transform="translate(506,22)"/>
<path d="M0 0 C2.97 0 5.94 0 9 0 C9.33 0.99 9.66 1.98 10 3 C7.69 3.33 5.38 3.66 3 4 C3.00153616 5.2554406 3.00153616 5.2554406 3.00310335 6.53624363 C3.11200753 95.56772274 3.21997655 184.59920302 3.32835388 279.78865051 C3.32991731 281.16209136 3.33148074 282.53553222 3.33304417 283.90897307 C3.3658551 312.73663454 3.39845913 341.56429624 3.43082409 370.39195821 C3.44708183 384.87263206 3.46337935 399.35330586 3.47971445 413.83397961 C3.48217834 416.0183609 3.48464109 418.2027422 3.4871038 420.38712349 C3.52504466 454.03119602 3.56383937 487.6752673 3.60510254 521.31933594 C3.60599 522.04294186 3.60687746 522.76654779 3.60779181 523.51208117 C3.62210583 535.1790595 3.63649138 546.84603774 3.65088643 558.51301598 C3.69233778 592.10962684 3.73326187 625.70623796 3.77068233 659.30285358 C3.77183654 660.33876603 3.77183654 660.33876603 3.77301406 661.395606 C3.78989458 676.55462934 3.80650296 691.71365297 3.8228535 706.87267688 C3.8294368 712.97177702 3.83605929 719.07087711 3.84269524 725.16997719 C3.84342058 725.83750506 3.84414591 726.50503294 3.84489323 727.19278893 C3.8682992 748.71528763 3.89489797 770.23778094 3.92316478 791.76027377 C3.9524054 814.03562634 3.97811044 836.31098027 3.99967117 858.58634164 C4.01222241 871.43832263 4.02760206 884.29029314 4.04695946 897.14226571 C4.0595984 905.71541085 4.06862403 914.28855475 4.07465136 922.86170708 C4.07819625 927.75420532 4.08336918 932.64668754 4.09292836 937.53917804 C4.10158283 941.98438275 4.10566499 946.4295666 4.10600058 950.87477952 C4.10694058 952.47832361 4.1095891 954.08186777 4.11409699 955.6854058 C4.11995151 957.85409712 4.1196575 960.02270288 4.11778647 962.19139928 C4.11989221 963.99648505 4.11989221 963.99648505 4.12204048 965.8380372 C4.01217266 968.68461704 3.65671833 971.23460924 3 974 C4.98 974 6.96 974 9 974 C9 974.66 9 975.32 9 976 C6.03 976 3.06 976 0 976 C0 653.92 0 331.84 0 0 Z " fill="#3C7AB7" transform="translate(121,214)"/>
<path d="M0 0 C1.98 0 3.96 0 6 0 C6 1.32 6 2.64 6 4 C4.68 4 3.36 4 2 4 C2.07589272 93.37934706 2.15262899 182.75869347 2.2436676 280.360672 C2.24495213 281.7369608 2.24623666 283.11324961 2.24752118 284.48953842 C2.27448698 313.37697483 2.30165755 342.26441104 2.32906473 371.15184704 C2.34283165 385.66254587 2.35655922 400.17324473 2.37024957 414.68394364 C2.37231496 416.8728542 2.37438148 419.06176477 2.37644804 421.25067533 C2.40826755 454.9645197 2.43924202 488.67836459 2.46777344 522.39221191 C2.4683871 523.11731896 2.46900076 523.84242601 2.46963302 524.58950599 C2.47952219 536.28068794 2.48934057 547.97186994 2.49914955 559.66305195 C2.52739688 593.32934898 2.55616604 626.99564519 2.58840275 660.66193867 C2.58906515 661.35397883 2.58972755 662.046019 2.59041002 662.75903008 C2.60495923 677.94948096 2.6197778 693.13993156 2.63485154 708.33038192 C2.64091158 714.44212564 2.64693282 720.5538694 2.65294075 726.66561317 C2.65359923 727.33452487 2.65425772 728.00343657 2.65493616 728.69261832 C2.6761478 750.25975672 2.69419951 771.82689636 2.71060037 793.39403892 C2.72758974 815.71559065 2.74807826 838.03713653 2.77266841 860.35868122 C2.78674552 873.23731695 2.79802333 886.11594819 2.80536438 898.99458955 C2.81053231 907.58551343 2.81927629 916.17642874 2.83098774 924.76734618 C2.83756705 929.66998947 2.84253501 934.57262041 2.84316199 939.47526839 C2.84376211 943.92969204 2.8488873 948.38408599 2.85772062 952.83850072 C2.86009661 954.44537528 2.86078164 956.05225339 2.8596265 957.65912929 C2.85830389 959.83231358 2.86306612 962.0054017 2.86938947 964.17857522 C2.87048134 965.38446142 2.8715732 966.59034763 2.87269815 967.83277584 C2.98711762 970.6794911 3.34396203 973.23404144 4 976 C2.02 976 0.04 976 -2 976 C-1.67 975.01 -1.34 974.02 -1 973 C-0.90443937 970.79780906 -0.87137249 968.59276246 -0.86938947 966.38850003 C-0.86741696 965.70898799 -0.86544445 965.02947595 -0.86341216 964.32937263 C-0.85797464 962.03128184 -0.85969877 959.7332508 -0.8613348 957.43515491 C-0.85888896 955.77227633 -0.85600557 954.10939834 -0.85272202 952.44652119 C-0.84491672 947.84346191 -0.84337856 943.24041796 -0.8427946 938.63735288 C-0.84107178 933.64234223 -0.83358995 928.64733981 -0.82681805 923.65233392 C-0.81573739 914.88692605 -0.80838007 906.12152109 -0.80341911 897.35610771 C-0.79602562 884.32213925 -0.78294542 871.28818089 -0.76867336 858.25421837 C-0.744831 836.33187411 -0.725633 814.40952772 -0.70907402 792.4871769 C-0.69265757 770.7722073 -0.67418326 749.05724105 -0.65294075 727.34227562 C-0.65228236 726.66827775 -0.65162396 725.99427988 -0.65094561 725.29985783 C-0.64493123 719.14406543 -0.63889142 712.98827306 -0.63282111 706.83248071 C-0.61773026 691.52881191 -0.60295833 676.22514282 -0.58840275 660.9214735 C-0.58773961 660.22452284 -0.58707647 659.52757218 -0.58639324 658.80950181 C-0.55415111 624.89408083 -0.52558307 590.9786569 -0.49731445 557.06323242 C-0.48750067 545.29154457 -0.47767066 533.51985673 -0.46777344 521.74816895 C-0.46715964 521.01810308 -0.46654584 520.28803721 -0.46591344 519.53584814 C-0.43736553 485.60673167 -0.40621024 451.67761774 -0.37438093 417.74850421 C-0.37231498 415.54621907 -0.37025016 413.34393392 -0.36818558 411.14164877 C-0.35450181 396.54717947 -0.34077308 381.9527102 -0.32701423 367.35824097 C-0.29963716 338.31804259 -0.27252435 309.27784397 -0.24559305 280.23764518 C-0.24431047 278.85462689 -0.2430277 277.4716086 -0.24174474 276.08859031 C-0.1603265 188.31788679 -0.08497529 100.54717795 0 0 Z " fill="#336FAC" transform="translate(1157,214)"/>
<path d="M0 0 C0.99 0 1.98 0 3 0 C3 291.06 3 582.12 3 882 C2.67 881.34 2.34 880.68 2 880 C1.34 880 0.68 880 0 880 C0 589.6 0 299.2 0 0 Z " fill="#3572AB" transform="translate(968,262)"/>
<path d="M0 0 C87.12 0 174.24 0 264 0 C258.375 4.5 258.375 4.5 254.40233135 4.49219131 C253.05499968 4.50413761 253.05499968 4.50413761 251.68044919 4.51632524 C250.70282158 4.50467387 249.72519397 4.4930225 248.71794128 4.48101807 C247.67236331 4.48443577 246.62678533 4.48785347 245.54952317 4.49137473 C242.0407945 4.49797107 238.53282829 4.47594763 235.02416992 4.45410156 C232.51114927 4.45297347 229.9981273 4.4536062 227.48510742 4.45587158 C222.07210248 4.45678289 216.65934372 4.44542689 211.24638939 4.42292023 C203.42024046 4.39040087 195.59418477 4.3799933 187.76797561 4.37496826 C175.07028046 4.36621549 162.37268815 4.33960045 149.67504883 4.30175781 C137.34106968 4.26503723 125.00711848 4.23672571 112.6730957 4.21972656 C111.91272545 4.21867567 111.15235519 4.21762477 110.36894342 4.21654204 C106.55435859 4.21132185 102.73977357 4.20626703 98.92518842 4.20129442 C67.28338353 4.15983296 35.64170775 4.08908755 4 4 C4 3.34 4 2.68 4 2 C2.68 2 1.36 2 0 2 C0 1.34 0 0.68 0 0 Z " fill="#2062A3" transform="translate(509,22)"/>
<path d="M0 0 C0.99 0.33 1.98 0.66 3 1 C3 322.09 3 643.18 3 974 C4.98 974 6.96 974 9 974 C9 974.66 9 975.32 9 976 C6.03 976 3.06 976 0 976 C0 653.92 0 331.84 0 0 Z " fill="#346EA9" transform="translate(121,214)"/>
<path d="M0 0 C0.33 0.66 0.66 1.32 1 2 C2.3921875 1.87625 2.3921875 1.87625 3.8125 1.75 C7 2 7 2 8.875 3.875 C10 6 10 6 10 8 C8.68 7.67 7.36 7.34 6 7 C6 6.34 6 5.68 6 5 C3.69 4.67 1.38 4.34 -1 4 C-1.33 3.01 -1.66 2.02 -2 1 C-1.34 0.67 -0.68 0.34 0 0 Z " fill="#063882" transform="translate(367,1314)"/>
<path d="M0 0 C0.99 0 1.98 0 3 0 C3 1.32 3 2.64 3 4 C1.02 4.33 -0.96 4.66 -3 5 C-3.33 5.99 -3.66 6.98 -4 8 C-5.32 8 -6.64 8 -8 8 C-7.67 6.68 -7.34 5.36 -7 4 C-4.69 4 -2.38 4 0 4 C0 2.68 0 1.36 0 0 Z " fill="#063786" transform="translate(454,46)"/>
<path d="M0 0 C0.66 0 1.32 0 2 0 C2 0.66 2 1.32 2 2 C1.34 2 0.68 2 0 2 C0 2.99 0 3.98 0 5 C-3.33303391 7.49977543 -4.73303602 8 -9 8 C-8.67 6.68 -8.34 5.36 -8 4 C-5.69 4 -3.38 4 -1 4 C-0.67 2.68 -0.34 1.36 0 0 Z " fill="#043584" transform="translate(503,22)"/>
<path d="M0 0 C1.65 0 3.3 0 5 0 C5.33 0.66 5.66 1.32 6 2 C9.02934491 2.65772428 9.02934491 2.65772428 12 3 C12 3.33 12 3.66 12 4 C10.20841511 4.02696365 8.41671527 4.04637917 6.625 4.0625 C5.62726562 4.07410156 4.62953125 4.08570313 3.6015625 4.09765625 C1 4 1 4 -1 3 C-0.67 2.01 -0.34 1.02 0 0 Z " fill="#0A467B" transform="translate(997,1150)"/>
<path d="M0 0 C1.65 0 3.3 0 5 0 C5.33 0.99 5.66 1.98 6 3 C6.66 3.66 7.32 4.32 8 5 C5.69 5 3.38 5 1 5 C0.67 3.35 0.34 1.7 0 0 Z " fill="#0E4290" transform="translate(1064,1165)"/>
<path d="M0 0 C1.98 0 3.96 0 6 0 C6 1.32 6 2.64 6 4 C4.02 4.33 2.04 4.66 0 5 C0 3.35 0 1.7 0 0 Z " fill="#2365AE" transform="translate(1157,214)"/>
<path d="M0 0 C0.91007812 0.00902344 1.82015625 0.01804688 2.7578125 0.02734375 C3.45648437 0.03894531 4.15515625 0.05054688 4.875 0.0625 C4.875 0.3925 4.875 0.7225 4.875 1.0625 C2.565 1.3925 0.255 1.7225 -2.125 2.0625 C-2.125 2.7225 -2.125 3.3825 -2.125 4.0625 C-3.775 3.7325 -5.425 3.4025 -7.125 3.0625 C-7.125 2.4025 -7.125 1.7425 -7.125 1.0625 C-4.60024538 -0.19987731 -2.81299534 -0.03606404 0 0 Z " fill="#0A3980" transform="translate(1107.125,225.9375)"/>
<path d="M0 0 C0.33 0.66 0.66 1.32 1 2 C1.66 2 2.32 2 3 2 C3 2.99 3 3.98 3 5 C3.33 4.01 3.66 3.02 4 2 C4.99 2.33 5.98 2.66 7 3 C6.67 3.99 6.34 4.98 6 6 C4.02 6 2.04 6 0 6 C0 4.02 0 2.04 0 0 Z " fill="#1B6BC4" transform="translate(771,1380)"/>
<path d="M0 0 C1.98 0 3.96 0 6 0 C5.67 1.32 5.34 2.64 5 4 C3.35 4 1.7 4 0 4 C0 2.68 0 1.36 0 0 Z " fill="#0C4962" transform="translate(1134,218)"/>
<path d="M0 0 C2.31 0 4.62 0 7 0 C5.515 1.98 5.515 1.98 4 4 C2.35 3.67 0.7 3.34 -1 3 C-0.67 2.01 -0.34 1.02 0 0 Z " fill="#073F7A" transform="translate(109,218)"/>
<path d="M0 0 C2.97 0.495 2.97 0.495 6 1 C5.67 1.99 5.34 2.98 5 4 C3.02 4 1.04 4 -1 4 C-0.67 2.68 -0.34 1.36 0 0 Z " fill="#3A70AC" transform="translate(145,1182)"/>
<path d="M0 0 C2.31 0 4.62 0 7 0 C6.34 1.32 5.68 2.64 5 4 C3.35 4 1.7 4 0 4 C0 2.68 0 1.36 0 0 Z " fill="#0D3B82" transform="translate(36,254)"/>
<path d="M0 0 C2.31 0 4.62 0 7 0 C5.515 1.98 5.515 1.98 4 4 C2.35 3.67 0.7 3.34 -1 3 C-0.67 2.01 -0.34 1.02 0 0 Z " fill="#073585" transform="translate(406,70)"/>
<path d="M0 0 C1.65 0 3.3 0 5 0 C5 1.32 5 2.64 5 4 C3.35 4 1.7 4 0 4 C0 2.68 0 1.36 0 0 Z " fill="#093D80" transform="translate(1097,1174)"/>
<path d="M0 0 C-0.33 1.32 -0.66 2.64 -1 4 C-2.65 4 -4.3 4 -6 4 C-6.33 3.01 -6.66 2.02 -7 1 C-4.53721199 -0.231394 -2.7204945 -0.07159196 0 0 Z " fill="#063178" transform="translate(1019,1154)"/>
<path d="M0 0 C2.31 0 4.62 0 7 0 C7 1.32 7 2.64 7 4 C5.68 4 4.36 4 3 4 C1.25 2 1.25 2 0 0 Z " fill="#2982B9" transform="translate(915,94)"/>
<path d="M0 0 C1.98 0 3.96 0 6 0 C5.34 1.32 4.68 2.64 4 4 C2.35 3.67 0.7 3.34 -1 3 C-0.67 2.01 -0.34 1.02 0 0 Z " fill="#053F7B" transform="translate(93,226)"/>
<path d="M0 0 C-0.33 1.65 -0.66 3.3 -1 5 C-1.99 5 -2.98 5 -4 5 C-4 4.34 -4 3.68 -4 3 C-4.66 3 -5.32 3 -6 3 C-6 2.34 -6 1.68 -6 1 C-4 0 -4 0 0 0 Z " fill="#072D92" transform="translate(1155,214)"/>
<path d="M0 0 C1.2065625 0.0309375 1.2065625 0.0309375 2.4375 0.0625 C2.4375 0.7225 2.4375 1.3825 2.4375 2.0625 C1.7775 2.0625 1.1175 2.0625 0.4375 2.0625 C0.4375 3.0525 0.4375 4.0425 0.4375 5.0625 C-0.5525 5.0625 -1.5425 5.0625 -2.5625 5.0625 C-3.125 3.125 -3.125 3.125 -3.5625 1.0625 C-2.5625 0.0625 -2.5625 0.0625 0 0 Z " fill="#053E76" transform="translate(320.5625,113.9375)"/>
<path d="M0 0 C1.65 0 3.3 0 5 0 C5 1.32 5 2.64 5 4 C3.35 4 1.7 4 0 4 C0 2.68 0 1.36 0 0 Z " fill="#267FD6" transform="translate(295,1146)"/>
<path d="M0 0 C1.32 0 2.64 0 4 0 C2.8141763 3.37503669 1.72426311 5.64722731 -1 8 C-0.67 5.36 -0.34 2.72 0 0 Z " fill="#072D7F" transform="translate(20,262)"/>
<path d="M0 0 C0.99 0 1.98 0 3 0 C3.33 0.99 3.66 1.98 4 3 C2.68 3.99 1.36 4.98 0 6 C-0.38218767 4.34385343 -0.71395102 2.67542976 -1 1 C-0.67 0.67 -0.34 0.34 0 0 Z " fill="#06408A" transform="translate(77,234)"/>
<path d="M0 0 C1.65 0 3.3 0 5 0 C4.67 1.32 4.34 2.64 4 4 C2.35 3.67 0.7 3.34 -1 3 C-0.67 2.01 -0.34 1.02 0 0 Z " fill="#0B3B65" transform="translate(1052,238)"/>
<path d="M0 0 C1.65 0.33 3.3 0.66 5 1 C5 1.66 5 2.32 5 3 C3.02 3.33 1.04 3.66 -1 4 C-0.67 2.68 -0.34 1.36 0 0 Z " fill="#1C5FA9" transform="translate(126,214)"/>
<path d="M0 0 C0 0.66 0 1.32 0 2 C-1.75 2.6875 -1.75 2.6875 -4 3 C-6.25 1.5625 -6.25 1.5625 -8 0 C-4.71023192 -1.09658936 -3.28696233 -0.79953138 0 0 Z " fill="#2A7EAD" transform="translate(899,83)"/>
<path d="M0 0 C0.33 0.66 0.66 1.32 1 2 C3.52733235 2.65555119 3.52733235 2.65555119 6 3 C6 3.33 6 3.66 6 4 C3.69 4 1.38 4 -1 4 C-1.33 3.01 -1.66 2.02 -2 1 C-1.34 0.67 -0.68 0.34 0 0 Z " fill="#083282" transform="translate(383,1322)"/>
<path d="M0 0 C1.65 0 3.3 0 5 0 C4.67 1.32 4.34 2.64 4 4 C2.68 3.67 1.36 3.34 0 3 C0 2.01 0 1.02 0 0 Z " fill="#2484CC" transform="translate(966,1286)"/>
<path d="M0 0 C1.98 0.495 1.98 0.495 4 1 C4 1.99 4 2.98 4 4 C2.35 4 0.7 4 -1 4 C-0.67 2.68 -0.34 1.36 0 0 Z " fill="#063072" transform="translate(1081,1170)"/>
<path d="M0 0 C2.475 0.495 2.475 0.495 5 1 C4.67 1.99 4.34 2.98 4 4 C2.68 4 1.36 4 0 4 C0 2.68 0 1.36 0 0 Z " fill="#196CCB" transform="translate(870,1334)"/>
<path d="M0 0 C1.65 0 3.3 0 5 0 C5.33 0.66 5.66 1.32 6 2 C5.34 2.66 4.68 3.32 4 4 C2.68 3.34 1.36 2.68 0 2 C0 1.34 0 0.68 0 0 Z " fill="#1C7FC9" transform="translate(893,1322)"/>
<path d="M0 0 C1.32 0.33 2.64 0.66 4 1 C3.67 1.99 3.34 2.98 3 4 C1.35 4 -0.3 4 -2 4 C-2 3.34 -2 2.68 -2 2 C-1.34 2 -0.68 2 0 2 C0 1.34 0 0.68 0 0 Z " fill="#1B7ED8" transform="translate(903,1318)"/>
<path d="M0 0 C2.475 0.495 2.475 0.495 5 1 C4.67 1.99 4.34 2.98 4 4 C2.68 3.67 1.36 3.34 0 3 C0 2.01 0 1.02 0 0 Z " fill="#2481D7" transform="translate(950,1294)"/>
<path d="M0 0 C2.475 0.495 2.475 0.495 5 1 C4.67 1.99 4.34 2.98 4 4 C2.68 3.67 1.36 3.34 0 3 C0 2.01 0 1.02 0 0 Z " fill="#2481D6" transform="translate(958,1290)"/>
<path d="M0 0 C0 0.99 0 1.98 0 3 C-3 4 -3 4 -6 3 C-6 2.34 -6 1.68 -6 1 C-4 0 -4 0 0 0 Z " fill="#093767" transform="translate(1039,242)"/>
<path d="M0 0 C0.99 0 1.98 0 3 0 C2.67 1.65 2.34 3.3 2 5 C1.01 5.33 0.02 5.66 -1 6 C-1.042721 4.33388095 -1.04063832 2.66617115 -1 1 C-0.67 0.67 -0.34 0.34 0 0 Z " fill="#043D89" transform="translate(85,230)"/>
<path d="M0 0 C1.65 0 3.3 0 5 0 C5 1.32 5 2.64 5 4 C3.0625 3.6875 3.0625 3.6875 1 3 C0.67 2.01 0.34 1.02 0 0 Z " fill="#2373BE" transform="translate(941,106)"/>
</svg>
