<?xml version="1.0" encoding="UTF-8"?>
<svg version="1.1" xmlns="http://www.w3.org/2000/svg" width="280" height="280">
<path d="M0 0 C2.76517264 1.55513659 5.38439803 3.25698958 8.01953125 5.0234375 C12.00530052 7.66668685 16.13203261 10.03303229 20.2734375 12.421875 C21.17320312 12.94265625 22.07296875 13.4634375 23 14 C23.89460937 14.47953125 24.78921875 14.9590625 25.7109375 15.453125 C28.2082461 17.14072603 29.03532703 18.28242657 30.25 21 C30.56453125 21.680625 30.8790625 22.36125 31.203125 23.0625 C33.14709615 27.78901808 33.1616512 32.06622916 33.17700195 37.10205078 C33.18357315 38.03412857 33.19014435 38.96620636 33.19691467 39.92652893 C33.2166497 43.01612427 33.22831235 46.10567094 33.23828125 49.1953125 C33.24235678 50.25148647 33.2464323 51.30766045 33.25063133 52.39583969 C33.27149551 57.98882604 33.28579429 63.58178784 33.29516602 69.17480469 C33.30621559 74.94156634 33.34059801 80.70794056 33.38033772 86.47456551 C33.40653432 90.91680601 33.4148607 95.35895477 33.41844749 99.80126572 C33.42330757 101.92624394 33.43490497 104.05121822 33.45348549 106.17612076 C33.47793544 109.15824933 33.47690075 112.13938309 33.4699707 115.12158203 C33.48918579 116.42650856 33.48918579 116.42650856 33.50878906 117.75779724 C33.45104547 124.6117818 31.91233934 131.08766066 26.9375 136.0625 C25 137 25 137 22 137 C21.82339844 137.56976563 21.64679688 138.13953125 21.46484375 138.7265625 C19.2821079 142.11416854 16.03389279 143.53727401 12.5625 145.375 C11.84328369 145.7678418 11.12406738 146.16068359 10.38305664 146.56542969 C8.26134801 147.72182127 6.13240249 148.86347157 4 150 C-3.5988134 153.98068554 -3.5988134 153.98068554 -10.75 158.6875 C-14 161 -14 161 -17.375 162.4375 C-21.21897995 164.09438791 -24.32938278 166.17706385 -27.765625 168.53515625 C-30.30310441 170.19871356 -32.89523097 171.49719767 -35.62890625 172.80078125 C-39.47196312 174.74446899 -43.17917179 176.93111123 -46.90112305 179.09521484 C-54.96542164 183.76348074 -60.56489038 186.53031533 -70 185 C-78.0153603 181.97078357 -85.1944278 177.39521764 -92.328125 172.69921875 C-95.97586221 170.37938587 -99.76293009 168.36582752 -103.58984375 166.359375 C-106 165 -106 165 -108.12890625 163.390625 C-110.05440419 161.80848094 -110.05440419 161.80848094 -113 161 C-113.125 157.625 -113.125 157.625 -113 154 C-111 152 -111 152 -108.70703125 151.0859375 C-105.74928846 149.89942596 -103.34184033 148.38431675 -100.6875 146.625 C-96.85500844 144.14183278 -93.05253755 141.92197765 -88.94140625 139.9453125 C-81.72217952 136.43011558 -74.95049247 132.13754406 -68.1328125 127.9140625 C-63.28865723 124.95441651 -58.33064342 122.24006538 -53.3203125 119.57421875 C-48.02471934 116.73572214 -42.97816857 113.76783025 -38.0703125 110.296875 C-35.79391021 108.87090225 -33.49960007 107.97184451 -31 107 C-27.46601655 104.85189241 -25.3063896 103.4595844 -23 100 C-23.29704962 95.84130536 -23.66938148 93.49592778 -26 90 C-20.71860321 91.48539285 -16.71945899 95.08672304 -13 99 C-13 99.66 -13 100.32 -13 101 C-12.443125 101.0825 -11.88625 101.165 -11.3125 101.25 C-8.27204246 102.23609434 -6.37039695 103.88586218 -4 106 C-3.67 106.66 -3.34 107.32 -3 108 C-2.278125 108.4125 -1.55625 108.825 -0.8125 109.25 C2.1272155 111.07915631 4.13592995 113.09563653 6.5078125 115.578125 C8.45563965 117.43416971 10.69033796 118.64137527 13 120 C13 120.66 13 121.32 13 122 C13.5775 122.28875 14.155 122.5775 14.75 122.875 C15.4925 123.24625 16.235 123.6175 17 124 C18.00546875 124.38671875 18.00546875 124.38671875 19.03125 124.78125 C21.62996075 126.3899757 21.92207662 127.72726817 22.75 130.625 C22.99234375 131.44226563 23.2346875 132.25953125 23.484375 133.1015625 C23.65453125 133.72804687 23.8246875 134.35453125 24 135 C24.66 134.67 25.32 134.34 26 134 C26.40729228 131.67843403 26.74438677 129.3431213 27 127 C26.401875 126.731875 25.80375 126.46375 25.1875 126.1875 C23.00152146 125.00082594 21.58667406 123.90400887 20 122 C20 121.34 20 120.68 20 120 C19.01 119.7215625 19.01 119.7215625 18 119.4375 C14.49802909 117.75947227 12.1222384 115.60916282 9.26171875 113.015625 C2.57556006 106.87566373 2.57556006 106.87566373 -5 102 C-5 101.34 -5 100.68 -5 100 C-5.55558594 99.75378906 -6.11117187 99.50757813 -6.68359375 99.25390625 C-9.44344588 97.75995594 -11.65316859 95.94941592 -14.0625 93.9375 C-15.02929688 93.13570313 -15.99609375 92.33390625 -16.9921875 91.5078125 C-17.98476562 90.68023437 -18.97734375 89.85265625 -20 89 C-27.57031536 82.72591708 -27.57031536 82.72591708 -35.375 76.75 C-38.54449546 74.41492274 -41.25145458 71.8248939 -44 69 C-44.69609375 68.5565625 -45.3921875 68.113125 -46.109375 67.65625 C-48 66 -48 66 -48.53125 63.73046875 C-48.4593773 57.8818281 -47.95666256 54.42215227 -44 50 C-43.34 50 -42.68 50 -42 50 C-40.92474806 47.34771188 -39.90543849 44.71631546 -39 42 C-38.34 42 -37.68 42 -37 42 C-36.73832031 41.28585938 -36.47664063 40.57171875 -36.20703125 39.8359375 C-34.94440917 36.86938853 -33.4362482 34.33148835 -31.6875 31.625 C-30.76130859 30.19027344 -30.76130859 30.19027344 -29.81640625 28.7265625 C-28.29698857 26.4458022 -26.74016146 24.21319501 -25.125 22 C-22.88911931 19.15120094 -22.88911931 19.15120094 -22 16 C-21.34 16 -20.68 16 -20 16 C-19.72800781 15.27039063 -19.45601563 14.54078125 -19.17578125 13.7890625 C-16.947623 8.50366386 -13.89973644 3.65618049 -9.5625 -0.125 C-5.99756007 -1.34229656 -3.47384187 -1.28709453 0 0 Z " fill="#337E8D" transform="translate(204,64)"/>
<path d="M0 0 C6.24090798 3.0372669 12.37497477 6.50920878 17.88525391 10.74414062 C20.02831674 12.30230639 22.21464359 13.06845026 24.67431641 14.04492188 C26.5516266 15.17397084 28.40549198 16.34271724 30.23681641 17.54492188 C33.32129357 19.56416351 36.33635388 21.47411598 39.67431641 23.04492188 C39.67431641 25.35492188 39.67431641 27.66492188 39.67431641 30.04492188 C38.68689453 30.59921875 37.69947266 31.15351562 36.68212891 31.72460938 C35.38776106 32.45620859 34.09349553 33.18798887 32.79931641 33.91992188 C32.14833984 34.28472656 31.49736328 34.64953125 30.82666016 35.02539062 C28.17038287 36.53152723 25.84412639 37.87511189 23.67431641 40.04492188 C22.00442434 40.74627654 20.33382462 41.44602284 18.65869141 42.13476562 C15.86209076 43.41745844 13.35540614 45.06205295 10.77197266 46.72460938 C6.46786994 49.43370941 1.96368647 51.80808868 -2.50927734 54.22460938 C-7.75140928 57.08395407 -12.76204953 60.20691169 -17.74755859 63.49414062 C-20.32568359 65.04492188 -20.32568359 65.04492188 -22.81396484 66.03710938 C-25.73056116 67.20737664 -28.1413478 68.75312592 -30.76318359 70.48242188 C-34.53606306 72.93201564 -38.30291956 75.03353986 -42.32568359 77.04492188 C-46.55827939 79.38560895 -48.92900448 80.81080906 -50.45068359 85.54492188 C-50.31494657 89.34555842 -49.5956804 91.04852609 -47.32568359 94.04492188 C-50.55541703 92.566783 -53.21565458 90.72745691 -56.01318359 88.54492188 C-56.80080078 87.93648438 -57.58841797 87.32804687 -58.39990234 86.70117188 C-60.32568359 85.04492188 -60.32568359 85.04492188 -61.32568359 83.04492188 C-62.06818359 82.61179687 -62.81068359 82.17867188 -63.57568359 81.73242188 C-66.64316639 79.85010288 -68.78714425 77.58346121 -71.32568359 75.04492188 C-72.13005859 74.57054688 -72.93443359 74.09617187 -73.76318359 73.60742188 C-76.62575516 71.86195141 -78.59278387 69.81070634 -80.89990234 67.40820312 C-82.55080181 65.82967185 -84.19572415 64.86413705 -86.32568359 64.04492188 C-86.32568359 63.38492188 -86.32568359 62.72492188 -86.32568359 62.04492188 C-86.88255859 61.81804687 -87.43943359 61.59117188 -88.01318359 61.35742188 C-90.96263115 59.6834111 -93.0009105 57.49535838 -95.32568359 55.04492188 C-95.65568359 54.71492188 -95.98568359 54.38492188 -96.32568359 54.04492188 C-96.36649142 52.04533824 -96.36822716 50.04446934 -96.32568359 48.04492188 C-99.36104811 49.69133111 -99.36104811 49.69133111 -100.19677734 51.92773438 C-100.52969957 54.11530715 -100.52969957 54.11530715 -99.17333984 55.97460938 C-95.42512011 60.05910265 -91.62986815 63.52678418 -87.10693359 66.73632812 C-84.96421835 68.310472 -83.20278552 70.16781995 -81.32568359 72.04492188 C-80.52130859 72.51929687 -79.71693359 72.99367188 -78.88818359 73.48242188 C-75.89704394 75.30628752 -73.76368236 77.54276524 -71.32568359 80.04492188 C-70.33568359 80.70492187 -69.34568359 81.36492187 -68.32568359 82.04492188 C-68.32568359 82.70492187 -68.32568359 83.36492187 -68.32568359 84.04492188 C-67.49423828 84.41230469 -67.49423828 84.41230469 -66.64599609 84.78710938 C-63.86074408 86.29695979 -61.63075933 88.1365932 -59.20068359 90.16992188 C-58.23130859 90.97429687 -57.26193359 91.77867188 -56.26318359 92.60742188 C-55.29380859 93.41179687 -54.32443359 94.21617188 -53.32568359 95.04492188 C-47.72347356 99.58004428 -42.07171275 104.04240525 -36.33349609 108.40429688 C-34.32568359 110.04492187 -34.32568359 110.04492187 -32.23974609 112.14648438 C-30.33452392 114.19124212 -30.33452392 114.19124212 -27.57568359 115.66992188 C-25.08016543 118.30407994 -24.81755691 119.10436174 -24.51318359 122.60742188 C-24.80248336 128.41043476 -27.53487887 131.79980498 -31.08740234 136.21679688 C-34.04120254 139.94899817 -36.43052 143.95180102 -38.88037109 148.02539062 C-39.35732422 148.69183594 -39.83427734 149.35828125 -40.32568359 150.04492188 C-40.98568359 150.04492188 -41.64568359 150.04492188 -42.32568359 150.04492188 C-42.42623047 150.77324219 -42.52677734 151.5015625 -42.63037109 152.25195312 C-43.40786863 155.37504715 -44.54784868 157.15122204 -46.45068359 159.73242188 C-47.07974609 160.59996094 -47.70880859 161.4675 -48.35693359 162.36132812 C-49.33146484 163.68970703 -49.33146484 163.68970703 -50.32568359 165.04492188 C-54.17523511 170.45223682 -57.93262576 175.87488961 -61.38037109 181.54882812 C-62.32568359 183.04492187 -62.32568359 183.04492187 -63.32568359 184.04492188 C-68.83346899 184.90824538 -73.12570617 184.63177333 -77.76318359 181.41992188 C-78.49537109 180.86820313 -79.22755859 180.31648437 -79.98193359 179.74804688 C-82.47789927 177.93431182 -85.01773951 176.5734916 -87.76318359 175.16992188 C-95.56352803 170.95707762 -102.61310654 166.99268964 -105.70460701 158.33979607 C-106.78011329 154.36580694 -106.7510686 150.47011059 -106.72973633 146.37524414 C-106.73659958 145.44243622 -106.74346283 144.5096283 -106.75053406 143.54855347 C-106.76873316 140.48598718 -106.76497441 137.42393653 -106.75927734 134.36132812 C-106.76384237 132.21955704 -106.7691489 130.07778741 -106.77516174 127.9360199 C-106.78407929 123.4549259 -106.78168502 118.97401026 -106.77172852 114.49291992 C-106.76023947 108.76547926 -106.78045669 103.03865521 -106.80964565 97.31129551 C-106.82803766 92.89047876 -106.8277092 88.46980897 -106.82200813 84.04896355 C-106.82185529 81.9379585 -106.8278686 79.82694326 -106.84029961 77.71597481 C-106.85526473 74.75826023 -106.84449185 71.80167467 -106.82739258 68.84399414 C-106.83706055 67.98189835 -106.84672852 67.11980255 -106.85668945 66.23158264 C-106.7757615 59.50838827 -105.16257853 53.63968063 -100.94092464 48.29023075 C-99.32568359 47.04492188 -99.32568359 47.04492188 -95.32568359 47.04492188 C-95.06754883 46.43068359 -94.80941406 45.81644531 -94.54345703 45.18359375 C-93.17934545 42.78792064 -92.24247762 42.10330999 -89.84130859 40.82617188 C-89.15294922 40.45105469 -88.46458984 40.0759375 -87.75537109 39.68945312 C-87.03607422 39.31175781 -86.31677734 38.9340625 -85.57568359 38.54492188 C-84.16297936 37.78682235 -82.75150088 37.02643387 -81.34130859 36.26367188 C-80.65721924 35.89387207 -79.97312988 35.52407227 -79.26831055 35.14306641 C-76.52144988 33.59029787 -73.93876288 31.81120356 -71.32568359 30.04492188 C-69.61014128 29.06240739 -67.8809628 28.1032711 -66.13818359 27.16992188 C-65.19072266 26.65816406 -64.24326172 26.14640625 -63.26708984 25.61914062 C-61.31857968 24.57631248 -59.36807723 23.5371977 -57.41552734 22.50195312 C-53.30631775 20.30321512 -49.31679913 18.14655712 -45.57568359 15.35742188 C-42.82181739 13.39794015 -40.38498644 12.15061898 -37.26708984 10.91601562 C-34.87295849 9.84178768 -32.69325763 8.53210363 -30.45068359 7.16992188 C-29.59216797 6.65429688 -28.73365234 6.13867188 -27.84912109 5.60742188 C-26.26598299 4.6271506 -24.704006 3.61087788 -23.17724609 2.54492188 C-16.07685034 -2.10069022 -7.93109403 -3.25702707 0 0 Z " fill="#337E8D" transform="translate(149.32568359375,32.955078125)"/>
<path d="M0 0 C6.24090798 3.0372669 12.37497477 6.50920878 17.88525391 10.74414062 C20.02831674 12.30230639 22.21464359 13.06845026 24.67431641 14.04492188 C26.5516266 15.17397084 28.40549198 16.34271724 30.23681641 17.54492188 C33.32129357 19.56416351 36.33635388 21.47411598 39.67431641 23.04492188 C39.67431641 25.35492188 39.67431641 27.66492188 39.67431641 30.04492188 C38.68689453 30.59921875 37.69947266 31.15351562 36.68212891 31.72460938 C35.38776106 32.45620859 34.09349553 33.18798887 32.79931641 33.91992188 C32.14833984 34.28472656 31.49736328 34.64953125 30.82666016 35.02539062 C28.17038287 36.53152723 25.84412639 37.87511189 23.67431641 40.04492188 C22.00442434 40.74627654 20.33382462 41.44602284 18.65869141 42.13476562 C15.86209076 43.41745844 13.35540614 45.06205295 10.77197266 46.72460938 C6.46786994 49.43370941 1.96368647 51.80808868 -2.50927734 54.22460938 C-7.75140928 57.08395407 -12.76204953 60.20691169 -17.74755859 63.49414062 C-20.32568359 65.04492188 -20.32568359 65.04492188 -22.81396484 66.03710938 C-25.73056116 67.20737664 -28.1413478 68.75312592 -30.76318359 70.48242188 C-34.53606306 72.93201564 -38.30291956 75.03353986 -42.32568359 77.04492188 C-46.55827939 79.38560895 -48.92900448 80.81080906 -50.45068359 85.54492188 C-50.31494657 89.34555842 -49.5956804 91.04852609 -47.32568359 94.04492188 C-50.55541703 92.566783 -53.21565458 90.72745691 -56.01318359 88.54492188 C-56.80080078 87.93648438 -57.58841797 87.32804687 -58.39990234 86.70117188 C-60.32568359 85.04492188 -60.32568359 85.04492188 -61.32568359 83.04492188 C-62.06818359 82.61179687 -62.81068359 82.17867188 -63.57568359 81.73242188 C-66.64316639 79.85010288 -68.78714425 77.58346121 -71.32568359 75.04492188 C-72.13005859 74.57054688 -72.93443359 74.09617187 -73.76318359 73.60742188 C-76.62575516 71.86195141 -78.59278387 69.81070634 -80.89990234 67.40820312 C-82.55080181 65.82967185 -84.19572415 64.86413705 -86.32568359 64.04492188 C-86.32568359 63.38492188 -86.32568359 62.72492188 -86.32568359 62.04492188 C-86.88255859 61.81804687 -87.43943359 61.59117188 -88.01318359 61.35742188 C-90.96263115 59.6834111 -93.0009105 57.49535838 -95.32568359 55.04492188 C-95.65568359 54.71492188 -95.98568359 54.38492188 -96.32568359 54.04492188 C-96.70068359 50.79492188 -96.70068359 50.79492188 -96.32568359 47.04492188 C-92.91405033 42.99560015 -89.00036774 40.45979528 -84.38818359 37.98242188 C-79.89111544 35.5219458 -75.58467562 32.90156287 -71.32568359 30.04492188 C-69.61014128 29.06240739 -67.8809628 28.1032711 -66.13818359 27.16992188 C-65.19072266 26.65816406 -64.24326172 26.14640625 -63.26708984 25.61914062 C-61.31857968 24.57631248 -59.36807723 23.5371977 -57.41552734 22.50195312 C-53.30631775 20.30321512 -49.31679913 18.14655712 -45.57568359 15.35742188 C-42.82181739 13.39794015 -40.38498644 12.15061898 -37.26708984 10.91601562 C-34.87295849 9.84178768 -32.69325763 8.53210363 -30.45068359 7.16992188 C-29.59216797 6.65429688 -28.73365234 6.13867188 -27.84912109 5.60742188 C-26.26598299 4.6271506 -24.704006 3.61087788 -23.17724609 2.54492188 C-16.07685034 -2.10069022 -7.93109403 -3.25702707 0 0 Z " fill="#FABF00" transform="translate(149.32568359375,32.955078125)"/>
</svg>
